<svg version="1.1" id="Layer_1" xmlns="http://www.w3.org/2000/svg" xmlns:xlink="http://www.w3.org/1999/xlink" x="0px" y="0px"
	 width="100%" viewBox="0 0 500 500" enable-background="new 0 0 500 500" xml:space="preserve">
<path fill="#000000" opacity="1.000000" stroke="none" 
	d="
M337.000000,501.000000 
	C226.000031,501.000000 115.500031,500.979645 5.000179,501.095337 
	C1.576374,501.098938 0.903033,500.423889 0.905298,497.000031 
	C1.013776,333.000122 1.013758,169.000153 0.905339,5.000261 
	C0.903076,1.576992 1.575751,0.903019 4.999862,0.905284 
	C168.999756,1.013775 332.999725,1.013760 496.999634,0.905354 
	C500.422638,0.903092 501.097015,1.575404 501.094757,4.999743 
	C500.986237,168.999634 500.986237,332.999603 501.094604,496.999512 
	C501.096893,500.422272 500.426208,501.106354 497.000183,501.097382 
	C443.833740,500.958069 390.666809,501.000000 337.000000,501.000000 
z"/>
<path fill="#272729" opacity="1.000000" stroke="none" 
	d="
M164.537506,116.737946 
	C166.991745,118.955612 167.858170,117.517342 169.021896,115.783089 
	C174.643387,107.405518 181.646317,100.495667 191.449646,97.327576 
	C200.342834,94.453606 209.368973,93.864517 218.568024,96.708542 
	C224.642120,98.586433 229.835999,101.654289 234.849838,105.928207 
	C235.536331,106.542824 236.116165,106.499870 236.836563,106.812851 
	C237.069321,106.945541 237.001862,106.998177 237.028305,106.964569 
	C237.359375,107.387680 237.477997,107.906685 237.736176,108.638466 
	C239.394501,110.763092 240.876114,112.687401 242.635010,114.786453 
	C243.138245,115.190567 243.375183,115.407967 243.839355,115.720573 
	C244.055588,115.827759 244.540695,115.807442 244.775574,115.738846 
	C245.010468,115.670242 245.500351,115.624382 245.678253,115.794289 
	C246.065018,115.997383 246.273880,116.030571 246.799927,116.061378 
	C249.471039,117.050751 251.954208,116.214172 254.698212,116.789276 
	C261.091522,117.835655 266.884338,119.315613 272.222900,122.510452 
	C284.388245,129.790710 291.898743,140.157410 293.946777,154.711258 
	C293.008179,158.453842 293.657257,161.841873 293.735779,165.541458 
	C292.981201,173.642700 289.934448,180.532700 284.981384,186.516525 
	C279.795227,192.781952 273.538055,197.795364 265.801422,200.488037 
	C262.741852,201.552902 259.307190,201.539917 255.723022,201.978790 
	C253.845749,202.811005 254.525131,204.308929 254.521790,205.514862 
	C254.497864,214.142639 254.405579,222.771057 254.810013,231.785980 
	C255.069916,232.173218 255.125977,232.440353 255.045746,232.550751 
	C255.292099,233.087265 255.702637,233.405487 256.488892,233.888290 
	C258.934509,239.290100 256.697296,244.034317 250.246674,247.980560 
	C249.684067,248.324738 249.033951,248.485733 247.979706,248.692505 
	C246.726868,248.548553 245.879578,248.465698 244.578552,248.487503 
	C238.652863,248.454437 233.170303,248.555237 227.288635,248.208603 
	C226.615250,247.787155 226.341660,247.590790 225.992493,247.146942 
	C224.888199,242.512329 225.886703,241.012039 230.518646,240.647690 
	C235.240738,240.276260 240.047958,240.726791 244.898743,238.770355 
	C247.281601,236.644409 247.062668,234.442017 245.701721,231.978836 
	C244.754196,231.596603 244.068893,231.488083 242.974915,231.433914 
	C219.774155,231.412552 196.970840,231.424576 174.167526,231.426010 
	C172.671646,231.426102 171.172592,231.355164 169.682022,231.583008 
	C167.574097,231.905228 165.150879,231.743912 164.943222,234.835876 
	C164.747360,237.752136 165.899979,239.656570 168.915405,240.183792 
	C169.407288,240.269791 169.895950,240.373260 170.841614,240.480408 
	C185.516541,240.175934 199.736938,240.421112 214.431183,240.376205 
	C215.219757,240.416672 215.533661,240.449997 216.316223,240.549744 
	C219.095581,241.221710 220.928238,242.232834 220.338501,245.491791 
	C219.967484,246.480301 219.840286,247.069229 219.452362,247.817642 
	C217.316132,248.987762 215.289932,248.455658 213.345001,248.458054 
	C197.117615,248.478119 180.890030,248.550888 164.222794,248.207458 
	C162.397964,248.118378 161.671310,247.228424 160.892242,245.891266 
	C160.180878,245.485916 159.580521,245.489899 158.781677,245.058685 
	C158.509598,244.943649 158.227829,244.955063 158.227829,244.955063 
	C158.227829,244.955063 158.024429,244.759659 158.019043,244.618835 
	C157.351822,243.703323 157.484116,242.762192 157.302582,241.550201 
	C157.097763,241.032135 157.053940,240.816971 156.999146,240.272614 
	C155.896606,229.903656 156.815552,219.832153 156.509338,209.780151 
	C156.434845,207.335129 156.828445,204.834473 155.307617,202.245453 
	C145.084885,202.248611 137.270233,196.846710 130.778915,190.937164 
	C124.228477,184.973755 119.294479,176.976105 118.944389,167.228790 
	C118.774750,162.505585 118.123161,157.934433 118.763878,153.057175 
	C119.724892,145.741714 122.607994,139.717667 126.574379,133.712921 
	C131.630905,126.057762 139.150742,122.083244 147.066757,118.645546 
	C149.832520,117.444458 153.139893,117.490570 156.613983,116.978790 
	C159.342392,116.008629 161.757660,116.695854 164.537506,116.737946 
z"/>
<path fill="#242424" opacity="1.000000" stroke="none" 
	d="
M247.777893,248.399414 
	C252.210220,246.744431 252.856018,241.725601 256.655914,239.821136 
	C257.773346,239.261093 256.890900,236.737244 256.086090,234.854721 
	C255.904007,233.983795 256.050629,233.556503 256.832397,233.103455 
	C257.178741,232.967834 257.605652,232.970627 257.817841,232.994049 
	C259.755646,233.951782 261.624176,233.487808 263.418976,233.489304 
	C300.529968,233.520203 337.640991,233.512772 375.222809,233.512054 
	C377.507446,233.588791 379.394501,233.181473 381.390564,234.619446 
	C382.644043,235.530853 383.554871,236.143234 384.768005,236.894623 
	C386.161591,237.767273 387.379578,238.396851 387.598114,240.256088 
	C388.176483,241.708527 388.625671,242.858459 389.020813,244.379120 
	C389.962830,246.461472 389.459259,248.334885 389.462036,250.123810 
	C389.526855,292.057800 389.423309,333.991882 389.723236,376.381775 
	C389.943146,379.648438 387.997650,380.926910 385.514496,382.016907 
	C384.140259,382.837341 383.011597,382.967621 381.398346,382.231750 
	C380.231140,380.719879 378.110352,380.711212 377.997589,378.487061 
	C377.040863,376.438385 377.539459,374.563721 377.538025,372.771606 
	C377.504944,332.110443 377.512543,291.449280 377.512512,250.326309 
	C377.728302,248.281464 376.897949,247.024658 376.007172,245.342987 
	C375.794342,244.965652 375.469574,245.094635 375.296112,245.073624 
	C374.287933,244.290222 373.251801,244.494049 372.276733,244.494904 
	C335.410217,244.527206 298.543579,244.404175 261.319214,244.882965 
	C260.961304,245.215805 261.010468,245.514114 260.914368,245.996887 
	C260.211182,248.253464 260.117188,250.027969 260.933167,252.140381 
	C261.542542,254.143051 262.179199,255.795258 261.317505,257.893005 
	C256.962463,260.694550 254.812378,264.454773 254.308563,269.160187 
	C253.988571,272.148895 251.924698,273.397308 249.523193,274.273407 
	C247.449234,275.029938 245.965881,274.264587 245.395432,271.665955 
	C245.482544,271.020935 245.535400,270.765564 245.741974,270.150421 
	C246.045380,269.480865 246.272888,269.246613 246.820496,269.033691 
	C248.085632,262.274963 247.184677,255.523483 247.777893,248.399414 
z"/>
<path fill="#262626" opacity="1.000000" stroke="none" 
	d="
M293.590820,381.803650 
	C299.901215,384.364197 305.786285,386.695282 312.054321,389.138550 
	C316.248627,389.812836 320.080292,389.393799 324.261230,389.357422 
	C330.931122,387.126740 336.607483,383.393250 343.584290,382.012756 
	C348.340118,380.971802 352.769440,381.707153 357.593262,381.786621 
	C364.365509,383.969788 370.789520,385.737213 377.016235,389.129211 
	C379.708710,389.870483 382.085724,389.285004 384.749573,389.796814 
	C386.311798,390.792175 387.542694,391.574951 388.882141,392.654785 
	C390.438293,394.841553 390.042816,396.653748 388.398010,398.655273 
	C387.665039,400.017639 386.929535,400.762787 385.410950,401.005127 
	C383.078918,401.990601 380.956329,401.305634 378.490295,401.228119 
	C371.892517,401.186829 367.009460,397.000305 360.884644,395.805817 
	C359.263336,393.396729 356.880432,395.114166 354.836090,394.117981 
	C354.490082,393.981567 354.340637,394.149261 354.238922,394.101624 
	C351.477631,392.885834 348.680328,393.755859 345.583374,393.551575 
	C343.588470,395.782013 341.085449,395.826630 338.410828,396.381348 
	C337.730652,397.257568 336.999664,397.561005 335.948334,397.993713 
	C332.050049,400.735748 327.782898,400.378021 323.379272,400.983398 
	C320.310883,401.967133 317.527710,401.309357 314.376831,401.213440 
	C307.921600,401.846191 303.113281,398.550079 297.717987,396.137573 
	C296.665161,396.036713 295.959381,395.854523 295.035217,395.195190 
	C293.293427,394.638214 291.843964,394.308990 290.099335,393.937561 
	C287.468994,393.040283 285.060516,393.650696 282.392395,393.744934 
	C282.096680,393.950653 281.617249,394.042938 281.375244,394.011169 
	C280.325500,394.645172 279.221527,394.452972 277.982513,394.992737 
	C274.453339,396.350403 271.700073,398.714661 267.804810,398.843933 
	C263.705963,400.586884 259.795105,400.976593 255.429779,399.221863 
	C249.796448,398.179779 249.483047,393.552826 248.006256,389.459412 
	C247.057877,387.373474 247.539978,385.505310 247.537033,383.714966 
	C247.488281,354.128113 247.541443,324.541138 247.397827,294.485107 
	C246.491959,291.521973 246.414062,289.084930 248.142502,286.397034 
	C255.033859,281.995209 256.937286,282.378876 259.600464,288.757721 
	C259.485992,321.525574 259.423096,353.833191 259.776276,386.570374 
	C261.081085,390.653687 263.402466,387.969421 264.527740,387.465332 
	C268.976044,385.472321 273.347931,383.333130 278.423340,382.003723 
	C283.553497,380.907532 288.375458,381.747192 293.590820,381.803650 
z"/>
<path fill="#242424" opacity="1.000000" stroke="none" 
	d="
M142.881165,285.835449 
	C143.534897,285.984467 144.011368,285.977356 144.839691,286.033142 
	C146.547714,286.915344 148.013382,286.389709 149.671738,286.242004 
	C150.928238,285.507721 151.791428,284.849518 151.961639,283.251221 
	C152.782501,281.903595 152.691681,280.599609 153.321381,279.248840 
	C153.736725,278.754974 153.797928,278.461334 153.410706,278.022034 
	C152.869919,277.776306 152.583420,277.587646 152.116821,277.186890 
	C151.913895,277.010254 151.996689,277.001465 152.000641,277.042908 
	C151.566559,276.603912 150.922348,276.642548 150.151672,276.237183 
	C149.928238,276.037323 149.994293,276.012207 149.983337,276.045807 
	C149.803406,275.808960 149.603577,275.563660 149.194077,275.186707 
	C148.897751,274.790985 148.752365,274.570374 148.393463,274.299438 
	C147.576904,274.029480 147.042206,273.636536 146.188782,273.157593 
	C145.360931,272.186829 144.540390,272.033142 143.334442,272.031647 
	C142.547653,271.406830 142.202896,270.666931 141.165009,270.187256 
	C138.848053,268.908112 136.777740,267.793091 134.452942,266.471710 
	C133.574783,266.002014 133.209641,265.378937 132.261414,265.118378 
	C131.932480,265.127228 131.469589,265.043854 131.235321,265.023193 
	C130.569061,264.559631 130.532486,263.940704 130.070221,263.220520 
	C129.847244,263.029083 129.506012,263.090576 129.343750,263.151581 
	C128.563309,263.016479 128.038132,262.633392 127.200729,262.167236 
	C126.808861,261.710846 126.630455,261.479187 126.218323,261.167664 
	C125.470688,260.526764 124.719948,260.198639 124.188782,259.226379 
	C124.862549,254.643967 127.465286,253.781235 131.483109,256.455627 
	C135.008484,258.802216 138.460358,261.282074 142.767822,262.988220 
	C144.028198,263.457275 145.175919,263.436340 145.856232,264.780518 
	C148.170776,266.239716 150.287247,267.465271 152.703400,268.851379 
	C153.538361,269.558929 154.090210,270.088745 154.876328,270.788025 
	C155.868668,271.218231 156.641617,271.463531 157.698639,271.837250 
	C158.145203,272.098389 158.307663,272.231079 158.704559,272.153931 
	C158.939026,271.944092 158.954742,271.982758 158.962479,271.963684 
	C159.255188,271.769897 159.494370,271.546265 159.829559,271.071533 
	C159.949341,270.453125 159.927338,270.036896 159.952148,269.311462 
	C160.694611,268.280609 160.868103,267.244690 161.706467,266.270813 
	C162.209549,265.630188 162.516556,265.209625 162.789444,264.513184 
	C163.270096,262.192841 162.416092,260.897186 160.203201,260.162231 
	C156.628387,257.601410 153.111252,255.482910 149.123093,253.533310 
	C148.783417,252.928284 148.578751,252.588120 147.973450,252.212585 
	C147.685028,252.109650 147.339676,252.059280 147.168610,252.024780 
	C146.448593,251.422287 145.867752,250.888885 145.000488,250.240799 
	C143.425858,248.525009 140.693008,249.857681 139.446411,247.433243 
	C138.787949,247.093643 138.482864,246.835266 138.055298,246.243256 
	C137.811798,246.046585 137.436111,246.056839 137.248779,246.071533 
	C136.619400,245.537369 135.958038,245.498535 135.047470,245.226181 
	C134.221237,244.656967 133.692245,244.209564 133.093323,243.510513 
	C132.317856,241.901093 133.115173,240.747528 133.781418,239.237976 
	C134.034378,238.934158 134.018372,239.031097 133.969330,239.028137 
	C135.672852,238.044189 137.552094,238.657593 139.728516,238.897186 
	C145.370972,243.922714 151.973465,246.491028 157.923386,250.129364 
	C162.035843,252.644089 166.868073,254.393539 169.019226,259.679321 
	C171.138199,261.325073 170.662445,263.317749 170.230042,265.599487 
	C169.556259,267.987152 168.703568,269.675446 171.528137,271.254211 
	C183.083557,277.712952 194.447830,284.515015 205.847290,291.250153 
	C207.587555,292.278381 208.674591,291.077148 209.881149,290.390533 
	C216.182449,286.804688 222.472778,283.197449 228.707352,279.497284 
	C231.419357,277.887726 234.168335,276.431885 237.481476,275.428894 
	C237.871307,274.805450 238.135040,274.502686 238.750854,274.094391 
	C239.748169,272.821625 240.938446,272.967194 242.364471,272.788025 
	C244.407272,276.486938 243.114273,277.747681 239.611282,280.228241 
	C232.031525,285.595673 222.588425,287.901184 215.797806,295.142273 
	C212.123734,299.215820 210.185455,299.365845 205.091934,297.266998 
	C200.796829,295.497192 197.517014,291.868164 192.523834,290.704163 
	C190.470688,288.590820 188.548676,286.983856 185.463196,286.686279 
	C179.562210,283.125610 174.698959,278.524719 168.596024,276.011139 
	C164.504974,274.326172 163.092728,275.379944 161.787415,280.417114 
	C161.955261,281.184448 162.044174,281.622223 162.207138,282.381165 
	C162.844254,285.455017 164.736771,286.597595 167.671265,286.950012 
	C168.223007,287.085114 168.441666,287.153717 168.973206,287.371338 
	C169.478241,287.650299 169.670380,287.780243 170.129150,288.134399 
	C170.562347,288.520203 170.728928,288.681702 171.130463,289.097961 
	C176.797577,292.605896 182.605804,295.329193 187.639511,299.119659 
	C192.513275,302.789703 198.101105,305.188812 203.131744,309.100922 
	C203.456024,310.445282 202.979156,311.233521 202.036011,312.143799 
	C201.537613,312.394226 201.321793,312.451538 200.777710,312.482544 
	C199.629776,312.220184 198.999634,311.628479 197.971313,311.156311 
	C197.523590,310.954651 197.345001,310.875549 196.899078,310.683563 
	C196.091675,310.363892 195.542862,310.186951 194.680634,310.035278 
	C193.998810,309.896515 193.620239,309.771545 192.992950,309.460876 
	C192.085419,308.771667 191.308456,308.641235 190.192307,308.523773 
	C189.494705,308.254669 189.139511,308.015533 188.597992,307.490143 
	C187.473541,305.491089 186.076279,304.255615 184.029022,303.258789 
	C183.761200,303.089203 183.408463,303.076080 183.231979,303.077820 
	C182.622009,302.543976 181.976669,302.498840 181.093445,302.212219 
	C179.704117,302.121796 179.030533,301.549286 178.410675,300.405823 
	C177.992355,300.124908 177.810013,299.999359 177.590820,299.543091 
	C177.156174,297.634094 175.368637,297.902771 174.224564,297.027222 
	C171.014130,297.465485 169.159378,295.046417 166.336792,294.190002 
	C165.400665,292.885193 164.408783,292.093353 163.024628,291.257904 
	C162.362167,291.070038 161.975433,291.046051 161.297943,291.022980 
	C159.829956,289.374512 158.648819,287.737183 156.169861,289.782410 
	C155.538818,290.609741 155.097412,291.171082 154.452606,291.915100 
	C153.480362,292.367798 152.774536,292.722382 152.193329,293.729614 
	C151.588791,293.992493 151.169022,294.017822 150.434967,294.011292 
	C148.776505,294.887817 147.280502,294.362091 145.458801,294.225525 
	C144.889420,293.989807 144.708771,293.960388 144.253815,293.919861 
	C143.346909,292.829224 142.383804,292.096771 141.134216,291.224854 
	C140.901672,291.028748 140.501770,291.066010 140.306152,291.111389 
	C139.119064,290.673523 138.236877,290.012634 137.020035,289.266113 
	C136.734344,289.100891 136.480209,289.156097 136.359451,289.204315 
	C135.807800,289.105133 135.477875,288.838196 134.981628,288.263245 
	C134.696960,288.095337 134.346115,288.053101 134.172089,288.022583 
	C133.456741,287.432587 132.889236,286.900909 132.060364,286.225922 
	C130.577805,287.111328 129.933273,286.398895 129.211060,285.095581 
	C128.436523,284.419830 127.893677,283.893005 127.107330,283.212280 
	C126.887390,283.033173 126.510078,283.077179 126.327255,283.128662 
	C125.537720,282.989838 125.014336,282.622894 124.171364,282.200989 
	C123.907440,282.028076 123.451675,282.005005 123.223793,281.993469 
	C122.783157,281.692688 122.594460,281.388672 122.169357,281.097351 
	C121.619774,280.970642 121.385139,280.758759 121.096512,280.277100 
	C119.266769,278.804749 117.228256,278.199219 114.970932,277.248718 
	C114.360229,277.089386 114.165421,276.929443 114.038513,276.483093 
	C113.181213,274.973663 113.226944,273.716125 114.614304,272.290741 
	C114.954796,272.058228 114.944931,271.955750 114.994255,271.941040 
	C116.104042,271.290131 117.262123,271.561737 118.777504,271.753540 
	C126.643089,276.123138 134.122650,280.305481 141.800842,284.768799 
	C142.243317,285.249512 142.478119,285.459351 142.881165,285.835449 
z"/>
<path fill="#89CFF8" opacity="1.000000" stroke="none" 
	d="
M243.546677,230.357162 
	C244.743881,230.224960 245.465775,230.212372 246.540985,230.278091 
	C248.092697,232.969391 247.237915,235.722931 247.354172,238.851135 
	C246.335068,241.715042 244.160950,241.531189 242.215179,241.587280 
	C238.053421,241.707260 233.887589,241.705612 229.723343,241.713699 
	C226.789230,241.719406 225.349930,242.996567 225.886551,246.471512 
	C224.411362,245.625641 222.567581,246.122421 220.474823,245.911942 
	C220.417160,243.907104 219.953171,242.370270 217.410309,241.703583 
	C216.867661,241.588013 216.687485,241.578766 216.237610,241.547256 
	C201.336899,241.543594 186.705872,241.562210 171.632629,241.469955 
	C169.516678,240.083420 169.482727,238.207916 169.439102,236.378540 
	C169.325241,231.604218 170.349731,230.525162 175.116272,230.520767 
	C195.769440,230.501694 216.422623,230.513962 237.075806,230.510727 
	C239.074310,230.510422 241.073181,230.546097 243.546677,230.357162 
z"/>
<path fill="#85BDE4" opacity="1.000000" stroke="none" 
	d="
M358.234314,298.809723 
	C358.034241,299.239105 358.054901,299.597656 357.974518,299.758240 
	C357.733276,300.202209 357.537933,300.459412 357.170837,300.890503 
	C357.033569,301.090668 357.035370,301.015381 357.070312,301.029358 
	C356.815765,301.222656 356.543427,301.425079 356.067505,301.778320 
	C355.846710,301.905975 355.580048,302.061737 355.428955,302.029724 
	C355.016815,302.135132 354.755707,302.272552 354.052246,302.443420 
	C353.008820,302.490417 352.414642,302.432465 351.381409,302.203552 
	C330.653992,301.926086 310.372314,301.933716 289.635376,302.197571 
	C287.335052,302.635925 285.477448,302.465759 283.213318,302.216797 
	C282.803345,301.999268 282.405945,302.045929 282.223694,301.963440 
	C281.778442,301.705383 281.524536,301.517548 281.091431,301.173645 
	C280.313263,300.586426 279.723389,300.143036 279.055573,299.427216 
	C278.076843,297.373535 278.664795,295.480347 278.780365,293.224213 
	C279.441895,292.249359 279.886017,291.689301 280.594116,291.050964 
	C281.915649,290.291992 283.104797,290.520721 284.245422,290.521698 
	C307.587250,290.542023 330.929169,290.447021 354.720886,290.773041 
	C356.035950,291.413513 356.901031,291.842987 357.889008,292.544708 
	C358.860046,294.617706 358.576050,296.504425 358.234314,298.809723 
z"/>
<path fill="#83BCE3" opacity="1.000000" stroke="none" 
	d="
M359.193939,357.868042 
	C359.010010,358.223724 359.042450,358.591736 358.958252,358.756134 
	C358.212891,359.717316 357.764404,360.635956 357.211243,361.848450 
	C357.069275,362.121002 357.025452,362.040710 357.069153,362.054260 
	C356.227997,362.609161 355.240295,362.455383 353.792725,362.487122 
	C329.406830,362.440582 305.508057,362.581390 281.184143,362.169922 
	C280.216095,361.507111 279.673492,361.091095 279.068298,360.421997 
	C278.046204,358.397156 278.681183,356.496399 278.775879,354.240601 
	C279.430634,353.273102 279.869080,352.721832 280.561127,352.072601 
	C281.708649,351.361755 282.730682,351.516998 283.715607,351.518463 
	C307.488892,351.554291 331.262329,351.424835 355.460815,351.833496 
	C356.149200,353.085724 357.163330,352.888153 357.898987,353.576843 
	C358.385468,354.338074 358.477051,354.916138 358.701538,355.754303 
	C358.838562,356.012970 359.019165,356.387360 359.012787,356.595093 
	C359.130219,357.039337 359.254059,357.275848 359.193939,357.868042 
z"/>
<path fill="#83BCE3" opacity="1.000000" stroke="none" 
	d="
M358.647461,265.543030 
	C358.779205,266.800690 358.790039,267.739258 358.476349,268.828735 
	C357.865082,269.193909 357.590637,269.423004 357.165405,269.879211 
	C357.003937,270.093414 357.004211,270.003418 357.049194,270.004333 
	C356.812683,270.202240 356.555298,270.427063 356.164246,270.881287 
	C356.009918,271.086731 356.020386,271.014984 356.053467,271.029846 
	C350.637665,272.035858 345.141449,271.410583 339.671448,271.449219 
	C327.009186,271.538696 314.345367,271.549042 301.239075,271.218658 
	C300.795776,270.996613 300.450256,271.049286 300.293396,270.972290 
	C299.841156,270.737335 299.569489,270.545776 299.115356,270.178894 
	C298.909027,270.037292 298.979828,270.015808 298.974274,270.052368 
	C298.795929,269.811340 298.596619,269.554321 298.244995,269.108459 
	C298.119202,268.898987 297.963257,268.553070 297.980225,268.364136 
	C297.118927,266.754242 297.641754,265.196503 297.775208,263.292480 
	C297.406830,260.872437 299.540558,261.167603 300.548523,260.121826 
	C304.254883,258.950134 307.739410,259.563110 311.174316,259.549438 
	C325.560211,259.492157 339.946808,259.452118 354.777466,259.779785 
	C355.221924,260.001221 355.588013,259.950409 355.754944,260.029663 
	C356.211884,260.273071 356.474365,260.473236 356.919525,260.841339 
	C357.129700,260.973175 357.032043,260.998932 357.021667,260.949524 
	C357.204254,261.183655 357.423889,261.444519 357.881409,261.830627 
	C358.088593,261.981964 358.021301,261.949249 358.044983,261.920288 
	C358.736908,262.931366 358.376099,264.112793 358.647461,265.543030 
z"/>
<path fill="#83BCE3" opacity="1.000000" stroke="none" 
	d="
M298.245789,330.127106 
	C298.113251,329.923431 297.949127,329.568085 297.969604,329.373444 
	C297.128967,327.761993 297.634369,326.214630 297.766663,324.313049 
	C297.968964,323.903900 297.956024,323.989166 297.914368,323.978088 
	C298.924286,323.306152 299.356354,322.006409 300.760437,321.287262 
	C301.031403,321.144897 301.417603,320.979523 301.626984,320.996155 
	C305.223419,319.933380 308.703339,320.565369 312.130768,320.550842 
	C325.835297,320.492737 339.540649,320.442993 353.691376,320.781769 
	C354.137268,320.998291 354.587677,320.983276 354.794342,321.073059 
	C355.748810,321.848999 356.673065,322.230133 357.832977,322.800720 
	C358.091675,322.950348 358.010956,322.941132 358.041443,322.914276 
	C358.368591,323.394135 358.482056,323.957947 358.727600,324.774414 
	C358.872650,325.023041 359.044067,325.390961 359.034943,325.593719 
	C359.143158,326.027557 359.260529,326.258636 359.199707,326.835266 
	C359.021545,327.180817 359.024994,327.615082 358.939148,327.814545 
	C358.497375,328.485992 358.499390,329.077911 358.185608,329.859192 
	C358.052277,330.109650 358.017517,330.036835 358.055542,330.023407 
	C357.810425,330.205688 357.552063,330.430206 357.162415,330.886932 
	C357.009705,331.094208 357.006500,331.007690 357.049774,331.007538 
	C356.811707,331.205048 356.552826,331.428680 356.163177,331.885010 
	C356.009979,332.091705 356.021759,332.018707 356.056519,332.031342 
	C350.641815,333.036865 345.144867,332.410431 339.674194,332.449188 
	C327.010162,332.538849 314.344574,332.549042 301.237396,332.216736 
	C300.795013,331.992737 300.429230,332.038086 300.262024,331.960571 
	C299.798126,331.731354 299.532928,331.536743 299.089600,331.167694 
	C298.880035,331.036133 298.960754,331.012177 298.968475,331.053589 
	C298.804993,330.818298 298.605713,330.563568 298.245789,330.127106 
z"/>
<path fill="#32241E" opacity="1.000000" stroke="none" 
	d="
M259.156555,288.142914 
	C256.658478,283.665527 253.319641,284.436279 249.302628,285.708344 
	C252.286240,280.882263 256.613098,278.577362 262.501190,279.917511 
	C272.711121,282.241272 283.273010,276.397247 286.820221,266.567627 
	C288.723450,261.293579 286.810120,257.816559 280.191101,255.062134 
	C275.556641,253.521057 271.668213,255.089188 267.784546,256.578064 
	C265.937744,257.286041 264.292755,258.543915 261.560120,258.249756 
	C260.613739,256.100464 260.313812,254.289398 260.009277,252.077332 
	C260.065247,250.925781 260.291779,250.237274 261.036407,249.386414 
	C263.892578,246.592880 267.325836,247.221268 270.780701,246.850784 
	C271.605957,246.728226 272.097473,246.439178 272.872253,246.117065 
	C275.118500,246.999725 277.215942,246.242813 279.554749,246.774994 
	C280.073639,246.974533 280.263885,246.971115 280.739258,246.981171 
	C283.396545,246.279816 285.503265,246.933914 287.708618,248.560486 
	C290.849487,251.517654 294.662445,253.462341 295.024902,258.409119 
	C295.987061,260.817505 295.311340,262.990387 295.218689,265.515869 
	C295.330048,272.228851 291.801910,276.637787 287.386414,280.875793 
	C286.018982,282.025085 284.934082,283.014465 283.276428,283.755157 
	C279.727112,287.462402 275.003876,288.118317 270.540192,290.008850 
	C268.456116,289.358948 266.638611,289.476715 264.441223,289.507263 
	C263.266083,289.631073 262.486938,289.552826 261.381775,289.232178 
	C261.055054,289.013397 260.651642,289.108948 260.446289,289.080811 
	C259.798553,289.026794 259.489777,288.817200 259.156555,288.142914 
z"/>
<path fill="#262626" opacity="1.000000" stroke="none" 
	d="
M200.761078,312.162903 
	C201.515976,311.437469 202.019226,310.872498 202.763718,310.150696 
	C204.992645,308.139496 206.879990,310.053375 209.155518,310.186920 
	C210.184708,310.333801 210.798843,310.596436 211.470612,311.384827 
	C212.428009,313.363831 211.149246,314.998138 211.555115,316.996765 
	C211.650009,317.744293 211.586807,318.163574 211.216980,318.812195 
	C206.437744,317.522491 203.050552,321.379700 198.832367,321.770386 
	C196.592773,321.977783 194.628555,321.928619 192.224670,321.077393 
	C191.674927,321.124512 191.514435,321.205688 191.141739,321.120270 
	C190.929550,320.953674 191.028839,320.956696 191.034607,321.006012 
	C190.611084,320.585480 190.014755,320.495056 189.184418,320.201355 
	C188.927032,320.051147 188.993332,320.019836 188.988495,320.056152 
	C188.791077,319.808502 188.568329,319.550232 188.112793,319.162170 
	C187.906158,319.010040 187.978638,319.004272 187.963013,319.037109 
	C187.642807,318.614288 187.522079,318.096832 187.265137,317.365906 
	C185.067459,314.111603 186.218765,310.756622 186.438690,307.206635 
	C187.180923,306.558960 187.708206,306.441101 188.638412,306.770447 
	C189.312683,307.103180 189.574158,307.292389 189.888687,307.781494 
	C190.076263,311.000610 189.090576,314.701202 194.544800,314.321777 
	C195.336044,314.217041 195.789978,314.206909 196.577423,314.294495 
	C197.854385,314.376160 198.643906,315.484863 199.660004,314.476654 
	C199.599701,314.017700 199.576996,313.829407 199.601715,313.353516 
	C199.834747,312.701233 200.126526,312.459534 200.761078,312.162903 
z"/>
<path fill="#32241E" opacity="1.000000" stroke="none" 
	d="
M215.551575,295.225586 
	C217.129318,291.312683 220.221375,288.627502 224.121384,287.152740 
	C228.481262,285.504120 232.853699,284.064819 235.711624,280.010712 
	C236.457291,278.953003 237.801025,279.214600 238.908691,278.928833 
	C241.605789,278.233002 243.227310,276.586853 242.809418,273.166046 
	C241.643997,270.938049 242.903412,270.899506 244.465393,270.864105 
	C244.982376,270.779694 245.198746,270.693665 245.703674,270.804443 
	C246.255081,272.564697 246.777298,274.435577 248.700958,273.377350 
	C250.475433,272.401154 252.960312,272.140686 253.153534,268.821167 
	C253.424973,264.158295 254.912140,259.678650 260.552063,257.946106 
	C260.913666,257.911499 261.074219,258.092010 261.153687,258.182983 
	C259.292480,262.942932 256.030365,267.006805 255.280670,272.256714 
	C255.031784,273.999603 252.974747,275.029480 251.386276,275.931000 
	C240.265121,282.242737 229.368515,288.946625 218.098587,294.998047 
	C217.505539,295.316498 216.868042,295.487885 215.551575,295.225586 
z"/>
<path fill="#C6C6C6" opacity="1.000000" stroke="none" 
	d="
M389.952942,376.381042 
	C387.898224,375.517120 389.012848,373.507538 389.009491,371.888641 
	C388.922302,329.832550 388.928680,287.776276 388.942810,245.234955 
	C390.917725,245.876373 389.951904,247.746704 389.953888,249.238846 
	C390.009491,291.467346 389.996643,333.695923 389.952942,376.381042 
z"/>
<path fill="#C6C6C6" opacity="1.000000" stroke="none" 
	d="
M377.485352,247.807373 
	C377.792938,249.900742 377.957397,251.888367 377.959381,253.876144 
	C378.000427,294.983368 378.022980,336.090607 378.036682,377.676880 
	C375.938232,376.861084 377.084442,374.820801 377.081177,373.203583 
	C376.997223,331.791199 377.011536,290.378662 376.962097,248.501892 
	C376.915466,248.037659 377.266571,247.701706 377.485352,247.807373 
z"/>
<path fill="#616161" opacity="1.000000" stroke="none" 
	d="
M376.820984,233.336517 
	C375.850464,233.718277 374.366608,233.972885 372.882568,233.973969 
	C335.576843,234.001221 298.271118,234.003677 260.965393,233.994858 
	C260.147522,233.994675 259.329681,233.812088 258.270935,233.366028 
	C297.455872,233.042053 336.881714,233.066650 376.820984,233.336517 
z"/>
<path fill="#797A79" opacity="1.000000" stroke="none" 
	d="
M261.426086,245.126831 
	C261.666931,243.535370 263.185638,244.037827 264.414124,244.037018 
	C300.668091,244.013428 336.922028,244.021606 373.175995,244.039307 
	C373.661407,244.039551 374.146790,244.226868 374.877411,244.689743 
	C337.378723,245.047699 299.634827,245.042786 261.426086,245.126831 
z"/>
<path fill="#2B292A" opacity="1.000000" stroke="none" 
	d="
M242.040619,293.980225 
	C242.353897,298.947418 238.657150,300.381622 235.665741,302.252655 
	C233.859848,303.382233 231.804703,304.113342 229.507294,305.072571 
	C228.702255,303.086517 226.954361,304.221924 225.547470,303.634949 
	C224.339554,302.784363 224.621780,301.895844 225.016953,300.707703 
	C225.301285,300.231293 225.440323,300.059296 225.821533,299.666656 
	C226.901550,298.827698 228.003616,298.609344 228.868500,297.484558 
	C229.213715,297.085449 229.357086,296.928223 229.730911,296.546631 
	C230.446030,295.877228 230.942291,295.444641 231.648224,294.727112 
	C234.393707,292.519226 236.830780,290.389648 240.737732,291.445374 
	C241.660599,292.148590 241.964188,292.818848 242.040619,293.980225 
z"/>
<path fill="#85BDE4" opacity="1.000000" stroke="none" 
	d="
M282.602325,321.343719 
	C286.761871,320.633270 289.138275,322.681946 290.397034,325.975555 
	C291.337616,328.436615 290.326447,330.507019 287.562561,331.868378 
	C285.469910,332.928741 283.588043,332.336334 281.338013,332.244202 
	C280.914795,332.052185 280.976807,332.014038 280.981384,332.050171 
	C280.770477,331.775452 280.513153,331.504395 279.966644,331.137299 
	C279.420471,331.062073 279.195221,330.960052 279.022369,330.499298 
	C278.075714,328.476532 278.662262,326.532501 278.780334,324.213806 
	C278.998840,323.785858 278.953125,323.440247 279.030090,323.283875 
	C279.251099,322.825256 279.442169,322.556458 279.821289,322.116821 
	C279.962280,321.912537 279.973114,321.993591 279.943817,321.965057 
	C280.646179,321.420929 281.503143,321.553223 282.602325,321.343719 
z"/>
<path fill="#8F8F8F" opacity="1.000000" stroke="none" 
	d="
M258.984375,288.368958 
	C259.330353,288.079254 259.683563,288.267212 260.138855,288.753937 
	C260.161743,307.788239 260.061218,326.523773 260.010590,345.259430 
	C259.973816,358.860413 260.003082,372.461578 260.001434,386.531342 
	C258.140747,385.614960 259.059601,383.623535 259.055817,381.945312 
	C258.985870,350.912537 258.997284,319.879578 258.984375,288.368958 
z"/>
<path fill="#E0E0E1" opacity="1.000000" stroke="none" 
	d="
M247.546143,292.817444 
	C247.992783,324.764252 248.035278,356.454163 248.046875,388.617920 
	C245.944107,388.018951 247.053848,386.131958 247.050247,384.675140 
	C246.979980,356.198761 247.017944,327.722137 246.954056,299.245728 
	C246.949829,297.365692 247.815979,295.218475 245.665009,293.296265 
	C245.880386,292.604340 246.482300,292.461121 247.546143,292.817444 
z"/>
<path fill="#242424" opacity="1.000000" stroke="none" 
	d="
M224.772491,302.669250 
	C226.164490,303.803802 229.049423,301.034912 228.962418,304.959534 
	C229.706589,307.498657 230.291824,309.872131 229.924225,312.773560 
	C229.201889,314.200989 229.375931,315.578735 228.259766,316.707581 
	C228.046265,316.924408 228.093842,317.016296 228.055603,317.051147 
	C227.450882,317.546265 226.814209,317.818329 225.722473,317.753540 
	C225.155548,317.601196 224.939484,317.506287 224.448578,317.190491 
	C222.244110,315.095734 223.613831,312.584351 222.685120,310.231934 
	C222.128326,309.668823 221.815750,309.335419 221.291321,308.712036 
	C220.935776,308.229248 220.803757,308.025513 220.504303,307.489655 
	C220.253464,306.918671 220.170059,306.679840 220.009232,306.063721 
	C220.010925,302.572418 220.517761,300.048798 224.772491,302.669250 
z"/>
<path fill="#B2D7E2" opacity="1.000000" stroke="none" 
	d="
M355.810425,351.643402 
	C331.182190,352.080261 306.478271,352.072418 281.294556,352.019592 
	C281.128326,350.955475 281.957520,350.949066 282.801941,350.951965 
	C307.112854,351.035431 331.423798,351.116882 355.810425,351.643402 
z"/>
<path fill="#B2D7E2" opacity="1.000000" stroke="none" 
	d="
M354.956635,290.588745 
	C330.718750,290.993042 306.266602,291.002045 281.336304,290.991882 
	C281.243866,290.019928 282.077209,289.984894 282.913940,289.987244 
	C306.856750,290.054108 330.799591,290.124054 354.956635,290.588745 
z"/>
<path fill="#B2D7E2" opacity="1.000000" stroke="none" 
	d="
M280.968079,362.330566 
	C304.900513,361.977051 329.042358,362.030975 353.613708,362.442596 
	C329.754639,362.779541 305.466064,362.758759 280.968079,362.330566 
z"/>
<path fill="#ECFFFF" opacity="1.000000" stroke="none" 
	d="
M351.569672,301.777618 
	C352.465576,301.958008 352.913696,301.929413 353.698730,301.905334 
	C354.142639,302.071686 354.249664,302.233551 354.179688,302.626434 
	C330.424713,302.828339 306.846710,302.799194 283.036041,302.384644 
	C284.572021,301.980774 286.340698,301.962280 288.549438,301.967590 
	C289.876770,301.370483 290.896667,301.516754 291.880432,301.518188 
	C311.627563,301.547241 331.374847,301.438568 351.569672,301.777618 
z"/>
<path fill="#D9F1FA" opacity="1.000000" stroke="none" 
	d="
M301.024963,332.381042 
	C318.912018,331.979370 337.029022,331.965973 355.618652,331.998291 
	C355.864899,332.795166 355.303680,333.000854 354.588074,332.997711 
	C336.810364,332.919342 319.032654,332.844666 301.024963,332.381042 
z"/>
<path fill="#C6C6C6" opacity="1.000000" stroke="none" 
	d="
M163.982300,248.384079 
	C181.934021,247.931671 200.085129,247.887848 218.713928,247.910583 
	C218.908142,248.995056 218.105270,249.039688 217.253036,249.035645 
	C199.562592,248.951813 181.872116,248.872696 163.982300,248.384079 
z"/>
<path fill="#D9F1FA" opacity="1.000000" stroke="none" 
	d="
M301.029907,271.381348 
	C318.911407,270.978790 337.027039,270.960999 355.614594,270.993958 
	C355.873779,271.806580 355.314392,272.000916 354.596771,271.997681 
	C336.819214,271.917206 319.041595,271.842102 301.029907,271.381348 
z"/>
<path fill="#ECFFFF" opacity="1.000000" stroke="none" 
	d="
M350.817963,245.988113 
	C353.024963,246.220413 354.860168,245.478424 356.973785,246.728653 
	C338.840118,246.728653 321.175598,246.728653 303.511108,246.728653 
	C303.509949,246.481812 303.508789,246.234955 303.507629,245.988113 
	C319.119568,245.988113 334.731506,245.988113 350.817963,245.988113 
z"/>
<path fill="#D9F1FA" opacity="1.000000" stroke="none" 
	d="
M354.988525,259.614136 
	C337.419434,260.019073 319.616913,260.036896 301.336365,260.027985 
	C301.157715,258.957001 302.008362,258.989014 302.838684,258.992737 
	C320.144165,259.070068 337.449615,259.148712 354.988525,259.614136 
z"/>
<path fill="#ECFFFF" opacity="1.000000" stroke="none" 
	d="
M353.928345,320.602478 
	C337.023956,321.015472 319.910675,321.032654 302.316864,321.031311 
	C302.158813,320.001495 302.994934,319.990051 303.832703,319.993591 
	C320.461609,320.063812 337.090515,320.135406 353.928345,320.602478 
z"/>
<path fill="#242424" opacity="1.000000" stroke="none" 
	d="
M211.220825,319.045166 
	C211.003174,318.599182 211.001511,318.142639 210.997787,317.344116 
	C215.283005,313.541901 219.708176,313.871063 224.598099,316.752808 
	C224.978394,316.984650 225.000244,317.001892 225.010101,317.011719 
	C226.347107,319.058685 224.207489,319.643951 223.121704,321.029938 
	C222.326660,321.443298 221.846436,321.629181 221.110519,321.858765 
	C220.161102,321.278168 219.293121,321.567627 218.209808,321.374237 
	C217.228424,320.964020 216.648758,320.356049 215.493912,320.467163 
	C215.000351,320.454895 214.802979,320.430206 214.375275,320.215820 
	C213.973511,320.051117 213.802094,320.076141 213.376434,320.154907 
	C212.746948,320.061096 212.469452,319.809784 212.087128,319.243805 
	C211.869080,319.049225 211.436813,319.034576 211.220825,319.045166 
z"/>
<path fill="#C6C6C6" opacity="1.000000" stroke="none" 
	d="
M155.062347,202.301086 
	C158.075760,202.132843 156.849762,204.569305 156.865082,206.080322 
	C156.976288,217.057297 156.952820,228.035645 156.980072,239.478485 
	C155.040100,238.801041 156.176880,236.964951 156.101761,235.484818 
	C155.546204,224.537247 157.013306,213.534454 155.062347,202.301086 
z"/>
<path fill="#8F8F8F" opacity="1.000000" stroke="none" 
	d="
M255.039856,231.691681 
	C253.454086,231.372177 254.027084,229.850601 254.061325,228.645493 
	C254.310715,219.866425 253.375580,211.063675 254.985825,202.122253 
	C254.488876,211.686142 255.233780,221.454651 255.039856,231.691681 
z"/>
<path fill="#E0E0E1" opacity="1.000000" stroke="none" 
	d="
M270.930542,246.618866 
	C268.091370,248.285492 264.571503,248.044312 261.404724,250.077103 
	C260.021301,249.101608 259.987732,247.987869 260.788055,246.438675 
	C261.063690,246.087418 261.113434,245.898254 261.026642,245.853180 
	C264.208771,245.945541 267.477722,246.082993 270.930542,246.618866 
z"/>
<path fill="#E0E0E1" opacity="1.000000" stroke="none" 
	d="
M247.633484,247.900391 
	C247.928085,254.835129 247.855835,261.674530 247.423172,268.746704 
	C247.042282,263.415131 247.074585,257.849731 246.956741,252.287506 
	C246.933228,251.177505 247.823746,249.571732 245.453705,248.929169 
	C244.847366,248.723831 244.672073,248.606155 244.760788,248.313538 
	C245.772064,248.027435 246.519348,247.916245 247.633484,247.900391 
z"/>
<path fill="#ECFFFF" opacity="1.000000" stroke="none" 
	d="
M288.108459,248.521942 
	C285.871857,248.280563 283.808746,247.687164 281.384979,247.044189 
	C285.760315,244.712326 290.666290,246.629150 296.618530,245.751099 
	C293.334564,248.019241 290.225952,245.712265 288.108459,248.521942 
z"/>
<path fill="#32241E" opacity="1.000000" stroke="none" 
	d="
M247.963440,292.669312 
	C247.351776,292.893555 246.753250,292.712738 245.745514,292.761169 
	C245.336273,292.990417 245.428650,292.969086 245.461060,293.003693 
	C245.222198,292.940338 244.950928,292.842377 244.443253,292.380005 
	C243.511719,288.687012 244.327972,286.246002 248.438293,285.658997 
	C248.844238,285.817078 248.959152,285.944824 249.018494,286.008118 
	C248.502029,288.098633 247.707230,290.086853 247.963440,292.669312 
z"/>
<path fill="#C6C6C6" opacity="1.000000" stroke="none" 
	d="
M244.559143,248.073090 
	C245.024780,248.138626 245.017731,248.490051 245.020187,248.665771 
	C239.093262,248.831985 233.163895,248.822449 227.061676,248.398239 
	C232.623718,247.991547 238.358597,247.999542 244.559143,248.073090 
z"/>
<path fill="#C6C6C6" opacity="1.000000" stroke="none" 
	d="
M255.203674,399.373291 
	C258.929230,399.881989 262.805969,400.162415 267.124207,398.979370 
	C263.720490,402.779266 259.541260,401.306000 255.203674,399.373291 
z"/>
<path fill="#E0E0E1" opacity="1.000000" stroke="none" 
	d="
M293.877869,381.609863 
	C289.256317,382.095032 284.496552,382.156921 279.264984,382.122742 
	C283.669495,379.863556 288.752899,381.385468 293.877869,381.609863 
z"/>
<path fill="#ECFFFF" opacity="1.000000" stroke="none" 
	d="
M377.746643,247.563217 
	C377.704132,247.913055 377.288849,247.842209 377.102173,247.939941 
	C374.030914,245.807053 370.451843,247.917984 366.576111,246.230652 
	C370.159821,246.060501 372.906708,245.930084 375.723938,245.382660 
	C377.541260,244.754669 377.537201,246.097626 377.746643,247.563217 
z"/>
<path fill="#E0E0E1" opacity="1.000000" stroke="none" 
	d="
M357.847931,381.597473 
	C353.641815,382.055542 349.266998,382.107880 344.430695,382.082916 
	C348.426727,379.839844 353.107849,381.439514 357.847931,381.597473 
z"/>
<path fill="#2B292A" opacity="1.000000" stroke="none" 
	d="
M223.043640,321.453705 
	C222.790787,319.653473 224.449997,319.034119 224.958206,317.361755 
	C225.769516,317.026031 226.519073,317.030548 227.643005,317.060516 
	C228.247467,320.484985 224.919525,320.191071 223.043640,321.453705 
z"/>
<path fill="#8F8F8F" opacity="1.000000" stroke="none" 
	d="
M324.189880,389.187408 
	C320.812744,390.707245 316.927032,390.117432 312.741760,389.454895 
	C316.211060,389.216553 319.984833,389.182312 324.189880,389.187408 
z"/>
<path fill="#2B292A" opacity="1.000000" stroke="none" 
	d="
M160.064606,260.409363 
	C163.557693,258.979736 164.204300,260.678467 163.048111,264.023254 
	C161.920654,263.045319 161.085983,261.853302 160.064606,260.409363 
z"/>
<path fill="#262626" opacity="1.000000" stroke="none" 
	d="
M173.972488,297.458557 
	C175.938141,296.106995 177.520340,296.385742 178.251770,298.820435 
	C177.834366,299.208923 177.633408,299.384766 177.110443,299.322388 
	C175.754562,298.885986 174.427567,299.316406 173.972488,297.458557 
z"/>
<path fill="#8F8F8F" opacity="1.000000" stroke="none" 
	d="
M293.979492,165.436432 
	C291.963593,162.554825 293.577606,158.988388 293.582458,155.339081 
	C293.962097,158.413986 293.996613,161.702393 293.979492,165.436432 
z"/>
<path fill="#2B292A" opacity="1.000000" stroke="none" 
	d="
M188.935928,306.650696 
	C188.484970,306.985077 187.978149,306.974121 187.087219,306.930756 
	C186.573639,305.118622 184.114136,305.423676 183.819244,303.414612 
	C186.419922,302.645386 187.672745,304.439178 188.935928,306.650696 
z"/>
<path fill="#E0E0E1" opacity="1.000000" stroke="none" 
	d="
M388.428650,398.929382 
	C388.969757,397.271973 389.172150,395.536926 388.954102,393.337769 
	C391.892670,394.658783 391.873840,395.329468 388.428650,398.929382 
z"/>
<path fill="#2B292A" opacity="1.000000" stroke="none" 
	d="
M114.875198,277.431732 
	C117.077461,276.756134 119.060432,277.601501 120.839188,279.735779 
	C118.690849,280.135681 116.712547,279.401520 114.875198,277.431732 
z"/>
<path fill="#E0E0E1" opacity="1.000000" stroke="none" 
	d="
M154.396912,278.661499 
	C153.747162,280.276917 153.230438,281.543182 152.374435,282.867523 
	C152.002747,281.235474 151.970322,279.545349 151.925903,277.432739 
	C152.341156,276.978851 152.768402,276.947449 153.539795,276.980347 
	C154.290573,277.369720 154.496872,277.796906 154.396912,278.661499 
z"/>
<path fill="#ECFFFF" opacity="1.000000" stroke="none" 
	d="
M314.120392,401.389252 
	C316.681091,400.984375 319.393890,400.973297 322.557800,400.981201 
	C320.245880,402.925415 317.200745,401.702118 314.120392,401.389252 
z"/>
<path fill="#C6C6C6" opacity="1.000000" stroke="none" 
	d="
M345.647766,393.641785 
	C348.073212,392.926544 350.959412,392.772949 354.004120,393.655640 
	C351.454071,393.929810 348.770966,393.805695 345.647766,393.641785 
z"/>
<path fill="#2B292A" opacity="1.000000" stroke="none" 
	d="
M156.260254,289.946838 
	C157.825195,286.210419 159.402817,287.719208 160.967117,290.659851 
	C159.498550,290.705658 158.342056,289.052765 156.260254,289.946838 
z"/>
<path fill="#ECFFFF" opacity="1.000000" stroke="none" 
	d="
M170.336853,265.903107 
	C169.523682,264.269775 170.603516,262.328522 169.103531,260.415405 
	C172.549835,261.136108 172.153229,263.336700 170.336853,265.903107 
z"/>
<path fill="#E0E0E1" opacity="1.000000" stroke="none" 
	d="
M283.402527,283.932190 
	C284.150757,282.954956 285.282104,281.972839 286.739532,280.987091 
	C287.065155,283.182373 286.111816,284.319611 283.402527,283.932190 
z"/>
<path fill="#E0E0E1" opacity="1.000000" stroke="none" 
	d="
M254.906586,116.606621 
	C252.475830,116.962234 249.908264,116.916473 247.228912,116.464851 
	C249.668015,116.107742 252.218887,116.156487 254.906586,116.606621 
z"/>
<path fill="#8F8F8F" opacity="1.000000" stroke="none" 
	d="
M384.921112,389.624451 
	C382.717102,389.886749 380.353302,389.764069 377.691406,389.436157 
	C379.849487,389.103363 382.306152,388.530853 384.921112,389.624451 
z"/>
<path fill="#C6C6C6" opacity="1.000000" stroke="none" 
	d="
M282.525696,393.957458 
	C284.384796,392.175232 286.945190,393.179352 289.608337,393.564697 
	C287.520996,393.918335 285.237823,393.941315 282.525696,393.957458 
z"/>
<path fill="#ECFFFF" opacity="1.000000" stroke="none" 
	d="
M164.800583,116.533737 
	C162.604355,116.939751 160.256943,116.965103 157.468781,116.990448 
	C159.379395,114.990211 162.107468,116.418625 164.800583,116.533737 
z"/>
<path fill="#616161" opacity="1.000000" stroke="none" 
	d="
M217.761505,320.815674 
	C218.833603,321.168396 219.672577,321.272186 220.683197,321.639221 
	C218.706009,321.088226 216.026657,323.523132 214.166107,320.419983 
	C214.144943,320.026123 214.532211,320.118042 214.727997,320.153778 
	C215.835052,320.017731 216.735046,319.923981 217.761505,320.815674 
z"/>
<path fill="#C6C6C6" opacity="1.000000" stroke="none" 
	d="
M263.790771,289.393066 
	C265.902618,289.177399 267.840851,289.242310 269.986755,289.668457 
	C268.404999,290.031372 266.615540,290.033051 264.451172,290.091187 
	C263.923187,289.989655 263.770172,289.831635 263.790771,289.393066 
z"/>
<path fill="#E0E0E1" opacity="1.000000" stroke="none" 
	d="
M244.920715,291.610657 
	C245.490845,291.969666 245.676941,292.155396 245.678253,292.689697 
	C244.835922,294.076233 243.814240,294.109589 242.398483,294.195526 
	C241.539963,293.902985 241.035263,293.446899 240.292480,292.722229 
	C241.188629,290.527740 242.894791,291.124298 244.920715,291.610657 
z"/>
<path fill="#B2D7E2" opacity="1.000000" stroke="none" 
	d="
M358.349152,299.075256 
	C358.009125,297.403931 357.984009,295.568787 357.985352,293.275269 
	C359.918182,294.667694 359.699890,296.745789 358.349152,299.075256 
z"/>
<path fill="#E0E0E1" opacity="1.000000" stroke="none" 
	d="
M354.743073,394.278717 
	C356.518158,393.563599 358.501740,393.346832 360.304016,395.446838 
	C359.049591,393.660980 356.627167,396.104523 354.743073,394.278717 
z"/>
<path fill="#ECFFFF" opacity="1.000000" stroke="none" 
	d="
M381.092834,382.366760 
	C382.113129,381.975708 383.220795,381.942322 384.746460,381.941376 
	C384.478699,385.633514 382.807922,384.064606 381.092834,382.366760 
z"/>
<path fill="#ECFFFF" opacity="1.000000" stroke="none" 
	d="
M378.193726,401.413269 
	C380.125061,401.010773 382.161835,400.997559 384.639130,400.985199 
	C383.014252,402.875763 380.577606,401.682159 378.193726,401.413269 
z"/>
<path fill="#8F8F8F" opacity="1.000000" stroke="none" 
	d="
M295.382446,265.776306 
	C294.991882,263.840607 294.977020,261.755524 294.968140,259.218323 
	C296.975342,260.854279 295.584930,263.329926 295.382446,265.776306 
z"/>
<path fill="#C6C6C6" opacity="1.000000" stroke="none" 
	d="
M377.655090,233.657959 
	C377.334412,233.581772 377.336884,233.450256 377.289062,233.405121 
	C378.796417,233.656998 380.766632,231.454926 381.829376,234.528198 
	C380.480713,234.523697 379.228210,234.128906 377.655090,233.657959 
z"/>
<path fill="#E0E0E1" opacity="1.000000" stroke="none" 
	d="
M387.806274,240.180511 
	C386.838226,239.581039 385.949188,238.603485 385.065186,237.329803 
	C387.378204,236.564087 388.620605,237.177872 387.806274,240.180511 
z"/>
<path fill="#C6C6C6" opacity="1.000000" stroke="none" 
	d="
M279.746338,246.603348 
	C277.760712,246.909744 275.638031,246.841553 273.335449,246.428680 
	C275.306763,246.132248 277.458038,246.180496 279.746338,246.603348 
z"/>
<path fill="#2B292A" opacity="1.000000" stroke="none" 
	d="
M132.052994,265.370850 
	C132.160522,264.445770 132.045441,263.343964 133.189529,263.586792 
	C134.147629,263.790131 133.920624,264.826233 134.145233,265.907715 
	C133.093597,267.385834 132.735916,266.181671 132.052994,265.370850 
z"/>
<path fill="#E0E0E1" opacity="1.000000" stroke="none" 
	d="
M133.633911,238.966309 
	C133.785629,240.141830 133.536896,241.349487 133.155792,242.908005 
	C131.747482,241.772369 130.752457,240.299744 133.633911,238.966309 
z"/>
<path fill="#2B292A" opacity="1.000000" stroke="none" 
	d="
M162.809952,291.431152 
	C164.428879,290.969086 165.562912,291.623505 165.987656,293.699310 
	C164.849030,293.464172 163.334732,293.338501 162.809952,291.431152 
z"/>
<path fill="#D9F1FA" opacity="1.000000" stroke="none" 
	d="
M278.642151,323.991089 
	C279.036560,325.648071 279.074310,327.510254 279.056549,329.837860 
	C277.080353,328.464722 278.160187,326.274567 278.642151,323.991089 
z"/>
<path fill="#D9F1FA" opacity="1.000000" stroke="none" 
	d="
M281.077209,332.420258 
	C282.717438,332.024048 284.520050,331.995911 286.776794,331.984558 
	C285.455536,333.951599 283.269623,332.776276 281.077209,332.420258 
z"/>
<path fill="#ECFFFF" opacity="1.000000" stroke="none" 
	d="
M114.602737,272.050598 
	C114.738853,273.240875 114.522911,274.423553 114.168808,275.947601 
	C111.547440,274.741180 112.038353,273.347473 114.602737,272.050598 
z"/>
<path fill="#D9F1FA" opacity="1.000000" stroke="none" 
	d="
M300.671600,321.079163 
	C300.335602,322.198486 299.842194,323.437195 298.189575,323.936249 
	C297.989868,322.407806 298.464386,321.143738 300.671600,321.079163 
z"/>
<path fill="#D9F1FA" opacity="1.000000" stroke="none" 
	d="
M278.636597,292.998474 
	C279.011719,294.623199 279.025604,296.436951 279.008575,298.702759 
	C277.061523,297.363617 278.179626,295.215424 278.636597,292.998474 
z"/>
<path fill="#D9F1FA" opacity="1.000000" stroke="none" 
	d="
M278.629517,354.011078 
	C279.014069,355.636932 279.035980,357.449493 279.031799,359.715515 
	C277.095032,358.384460 278.165833,356.231140 278.629517,354.011078 
z"/>
<path fill="#2B292A" opacity="1.000000" stroke="none" 
	d="
M140.949982,291.353760 
	C142.439163,291.038971 143.541061,291.642792 143.946930,293.574127 
	C142.793655,293.422241 141.442932,293.156189 140.949982,291.353760 
z"/>
<path fill="#C6C6C6" opacity="1.000000" stroke="none" 
	d="
M140.022766,238.789001 
	C138.324814,239.126724 136.569946,239.050583 134.367676,238.999817 
	C135.807083,237.614273 137.876938,237.906219 140.022766,238.789001 
z"/>
<path fill="#ECFFFF" opacity="1.000000" stroke="none" 
	d="
M263.606659,289.021851 
	C263.969025,289.286499 263.973694,289.460510 264.027313,289.891113 
	C263.138031,289.394653 261.463470,293.582062 261.024231,289.350769 
	C261.786346,288.985992 262.517639,288.958618 263.606659,289.021851 
z"/>
<path fill="#2B292A" opacity="1.000000" stroke="none" 
	d="
M136.796585,289.410492 
	C138.050797,288.927338 139.056488,289.422638 139.947006,290.837219 
	C138.517319,291.830597 137.464828,291.280609 136.796585,289.410492 
z"/>
<path fill="#E0E0E1" opacity="1.000000" stroke="none" 
	d="
M228.432526,316.956665 
	C228.462784,315.743439 228.879318,314.562439 229.596497,313.290375 
	C229.480133,314.446136 231.344040,316.342010 228.432526,316.956665 
z"/>
<path fill="#ECFFFF" opacity="1.000000" stroke="none" 
	d="
M257.101685,232.589096 
	C256.954865,233.338211 256.730957,233.708603 256.255829,234.292038 
	C255.551773,234.167694 255.098953,233.830307 254.805817,233.077026 
	C257.204529,232.376083 255.078857,230.148224 256.478271,229.396957 
	C257.496002,230.167511 256.788757,231.296753 257.101685,232.589096 
z"/>
<path fill="#E0E0E1" opacity="1.000000" stroke="none" 
	d="
M149.517792,286.021423 
	C148.748550,288.192474 147.061340,287.012207 145.353928,286.415405 
	C146.502411,286.064026 147.813278,286.032043 149.517792,286.021423 
z"/>
<path fill="#E0E0E1" opacity="1.000000" stroke="none" 
	d="
M146.018021,264.683563 
	C145.113998,264.568817 144.173706,264.123505 143.180389,263.368286 
	C144.856232,261.775818 145.769318,262.291931 146.018021,264.683563 
z"/>
<path fill="#ECFFFF" opacity="1.000000" stroke="none" 
	d="
M297.632202,263.043579 
	C298.000397,264.354218 298.010406,265.821259 298.008789,267.731720 
	C296.202576,266.742584 297.167389,264.908875 297.632202,263.043579 
z"/>
<path fill="#E0E0E1" opacity="1.000000" stroke="none" 
	d="
M161.522430,266.020660 
	C161.490753,267.046753 161.078964,268.042755 160.333069,269.020508 
	C160.309250,267.971466 159.017624,266.332520 161.522430,266.020660 
z"/>
<path fill="#D9F1FA" opacity="1.000000" stroke="none" 
	d="
M357.976471,322.635742 
	C356.924377,323.072418 355.865082,322.924072 355.099304,321.478699 
	C356.329590,320.622498 357.066467,321.543304 357.976471,322.635742 
z"/>
<path fill="#ECFFFF" opacity="1.000000" stroke="none" 
	d="
M297.613403,324.059662 
	C297.982788,325.367340 297.996613,326.830750 298.000244,328.736511 
	C296.212616,327.750549 297.172028,325.918549 297.613403,324.059662 
z"/>
<path fill="#ECFFFF" opacity="1.000000" stroke="none" 
	d="
M145.161514,294.391937 
	C146.471436,293.997498 147.872772,293.975739 149.697418,293.966736 
	C148.758469,295.855316 146.913559,294.738678 145.161514,294.391937 
z"/>
<path fill="#D9F1FA" opacity="1.000000" stroke="none" 
	d="
M357.385864,361.992371 
	C356.809418,360.875061 357.101318,359.839783 358.544861,359.019501 
	C359.396088,360.264862 358.537140,361.059448 357.385864,361.992371 
z"/>
<path fill="#2B292A" opacity="1.000000" stroke="none" 
	d="
M144.818115,250.429596 
	C145.724197,250.037643 146.577042,250.206375 146.946259,251.653564 
	C146.057236,251.991806 145.128937,251.972702 144.818115,250.429596 
z"/>
<path fill="#D9F1FA" opacity="1.000000" stroke="none" 
	d="
M358.838928,265.497162 
	C358.483398,264.767975 358.198486,263.673828 357.991089,262.235535 
	C359.731323,262.612976 358.705170,264.032227 358.838928,265.497162 
z"/>
<path fill="#C6C6C6" opacity="1.000000" stroke="none" 
	d="
M157.089478,241.590271 
	C158.108322,241.861099 158.306854,242.877182 158.268112,244.181152 
	C156.202087,244.199936 155.608994,243.454346 157.089478,241.590271 
z"/>
<path fill="#E0E0E1" opacity="1.000000" stroke="none" 
	d="
M277.815979,395.320740 
	C278.096680,393.678406 279.387390,394.156403 280.735138,393.916992 
	C280.590820,395.473358 279.208038,395.347961 277.815979,395.320740 
z"/>
<path fill="#E0E0E1" opacity="1.000000" stroke="none" 
	d="
M294.835571,395.337372 
	C295.603485,394.565948 296.386963,394.843170 297.289673,395.643127 
	C296.436829,397.074524 295.465027,398.000427 294.835571,395.337372 
z"/>
<path fill="#E0E0E1" opacity="1.000000" stroke="none" 
	d="
M245.827576,115.598351 
	C245.856171,115.964195 245.391708,115.997223 245.172668,116.076126 
	C244.765091,116.286186 244.576553,116.417351 244.111633,116.754196 
	C243.419113,116.488617 243.002975,116.017342 242.749573,115.253632 
	C243.874542,115.051628 244.836761,115.142067 245.827576,115.598351 
z"/>
<path fill="#2B292A" opacity="1.000000" stroke="none" 
	d="
M131.878723,286.394806 
	C132.781631,286.044403 133.613708,286.240723 133.950043,287.660522 
	C133.058243,287.984009 132.156036,287.914581 131.878723,286.394806 
z"/>
<path fill="#2B292A" opacity="1.000000" stroke="none" 
	d="
M155.047852,270.642944 
	C154.163849,270.939575 153.351486,270.723572 153.047867,269.336914 
	C153.932983,269.039948 154.793884,269.173920 155.047852,270.642944 
z"/>
<path fill="#2B292A" opacity="1.000000" stroke="none" 
	d="
M118.951813,271.657166 
	C118.062759,271.955719 116.962006,271.970642 115.452408,271.955933 
	C116.071587,270.376801 117.394821,270.801392 118.951813,271.657166 
z"/>
<path fill="#2B292A" opacity="1.000000" stroke="none" 
	d="
M126.938614,283.361816 
	C127.808792,283.055267 128.620926,283.250427 128.939865,284.619720 
	C128.045288,284.963043 127.203362,284.828796 126.938614,283.361816 
z"/>
<path fill="#2B292A" opacity="1.000000" stroke="none" 
	d="
M146.024597,273.230896 
	C146.555405,273.194641 147.187164,273.424408 148.013367,273.942505 
	C147.040314,275.329407 146.686722,274.118713 146.024597,273.230896 
z"/>
<path fill="#C6C6C6" opacity="1.000000" stroke="none" 
	d="
M149.911865,276.366760 
	C150.734360,275.218109 151.393341,275.809845 152.035828,276.672363 
	C151.333817,276.779663 150.130859,279.367188 149.911865,276.366760 
z"/>
<path fill="#D9F1FA" opacity="1.000000" stroke="none" 
	d="
M282.543945,321.143066 
	C282.105621,321.506500 281.325287,321.797119 280.229736,322.012146 
	C280.283722,320.609222 281.337494,321.089630 282.543945,321.143066 
z"/>
<path fill="#2B292A" opacity="1.000000" stroke="none" 
	d="
M152.306122,293.911743 
	C152.088791,292.982971 152.405975,292.193176 153.901169,292.091003 
	C153.700684,292.683960 153.152161,293.270142 152.306122,293.911743 
z"/>
<path fill="#2B292A" opacity="1.000000" stroke="none" 
	d="
M127.044029,262.236633 
	C127.561592,262.200317 128.181808,262.422791 128.991760,262.928955 
	C128.039658,264.288696 127.696297,263.099457 127.044029,262.236633 
z"/>
<path fill="#2B292A" opacity="1.000000" stroke="none" 
	d="
M124.028641,282.269989 
	C124.527046,282.225830 125.146660,282.423553 125.955353,282.900696 
	C125.051933,284.233795 124.701347,283.072968 124.028641,282.269989 
z"/>
<path fill="#C6C6C6" opacity="1.000000" stroke="none" 
	d="
M335.781067,398.341797 
	C335.685547,397.036499 336.557190,396.908112 337.671509,396.540955 
	C338.033722,397.834412 337.574768,398.775146 335.781067,398.341797 
z"/>
<path fill="#D9F1FA" opacity="1.000000" stroke="none" 
	d="
M354.391418,362.875671 
	C354.043243,362.800354 354.080566,362.491608 354.106628,362.339783 
	C354.878571,362.100769 355.624451,362.013550 356.741577,361.997070 
	C356.691528,363.355835 355.629486,362.922180 354.391418,362.875671 
z"/>
<path fill="#2B292A" opacity="1.000000" stroke="none" 
	d="
M141.051788,270.295227 
	C141.864090,270.060486 142.691742,270.274078 142.969696,271.701935 
	C142.402328,271.545197 141.793777,271.056274 141.051788,270.295227 
z"/>
<path fill="#2B292A" opacity="1.000000" stroke="none" 
	d="
M124.015610,259.339783 
	C124.598068,259.502228 125.192726,260.003265 125.908943,260.778351 
	C125.083122,261.002258 124.209244,260.844940 124.015610,259.339783 
z"/>
<path fill="#2B292A" opacity="1.000000" stroke="none" 
	d="
M137.839264,246.317047 
	C138.166489,246.259232 138.521179,246.471893 139.036606,246.959259 
	C138.279282,247.995209 138.022690,247.394928 137.839264,246.317047 
z"/>
<path fill="#D9F1FA" opacity="1.000000" stroke="none" 
	d="
M358.352783,329.988708 
	C358.159973,329.534454 358.267639,328.959259 358.614319,328.199036 
	C358.786621,328.631927 358.719940,329.249847 358.352783,329.988708 
z"/>
<path fill="#C6C6C6" opacity="1.000000" stroke="none" 
	d="
M158.810440,244.968231 
	C159.054825,245.202469 159.600052,245.461288 160.453552,245.643250 
	C160.211639,245.375214 159.661453,245.184006 158.810440,244.968231 
z"/>
<path fill="#D9F1FA" opacity="1.000000" stroke="none" 
	d="
M358.930054,324.696289 
	C358.556427,324.515228 358.240234,324.007446 357.997955,323.193542 
	C358.853455,323.087189 359.046967,323.650208 358.930054,324.696289 
z"/>
<path fill="#2B292A" opacity="1.000000" stroke="none" 
	d="
M134.963074,245.362183 
	C135.394608,245.242996 136.039001,245.381607 136.872406,245.803223 
	C136.432922,245.930817 135.804413,245.775406 134.963074,245.362183 
z"/>
<path fill="#262626" opacity="1.000000" stroke="none" 
	d="
M238.696716,273.884216 
	C238.732071,274.204285 238.502655,274.548859 238.000809,275.055969 
	C237.038147,274.285126 237.668854,274.061371 238.696716,273.884216 
z"/>
<path fill="#2B292A" opacity="1.000000" stroke="none" 
	d="
M176.824951,299.348450 
	C176.995697,299.066254 177.202972,299.048279 177.722794,299.031677 
	C178.051361,299.236359 178.067368,299.439575 178.129028,299.946594 
	C177.269470,301.000458 177.025192,300.389496 176.824951,299.348450 
z"/>
<path fill="#D9F1FA" opacity="1.000000" stroke="none" 
	d="
M358.897797,355.682495 
	C358.558105,355.498657 358.277649,354.984375 357.997498,354.166412 
	C358.776428,354.063568 359.039062,354.596771 358.897797,355.682495 
z"/>
<path fill="#E0E0E1" opacity="1.000000" stroke="none" 
	d="
M236.997131,106.642242 
	C236.391281,108.025879 235.925720,107.013817 235.272461,106.429672 
	C235.750458,106.169777 236.337708,106.254356 236.997131,106.642242 
z"/>
<path fill="#2B292A" opacity="1.000000" stroke="none" 
	d="
M122.030609,281.334229 
	C122.607132,280.274078 122.853859,280.718658 122.987900,281.744141 
	C122.654099,281.953217 122.374611,281.806122 122.030609,281.334229 
z"/>
<path fill="#E0E0E1" opacity="1.000000" stroke="none" 
	d="
M189.018082,320.373352 
	C189.709000,318.880920 190.221085,320.046234 190.941025,320.663849 
	C190.396622,320.935394 189.752884,320.815491 189.018082,320.373352 
z"/>
<path fill="#32241E" opacity="1.000000" stroke="none" 
	d="
M211.891968,319.302368 
	C212.193146,319.260651 212.517227,319.472046 212.981750,319.946075 
	C212.174179,320.999359 212.047592,320.271729 211.891968,319.302368 
z"/>
<path fill="#E0E0E1" opacity="1.000000" stroke="none" 
	d="
M187.063904,317.477417 
	C187.566010,317.651489 188.043365,318.136993 188.234055,318.846191 
	C187.191574,318.964111 186.921722,318.513794 187.063904,317.477417 
z"/>
<path fill="#2B292A" opacity="1.000000" stroke="none" 
	d="
M129.889160,263.337097 
	C130.216614,263.480408 130.585983,263.931702 130.978210,264.692810 
	C130.644394,264.550079 130.287735,264.097595 129.889160,263.337097 
z"/>
<path fill="#2B292A" opacity="1.000000" stroke="none" 
	d="
M134.755585,288.370148 
	C135.089676,288.291046 135.482391,288.486755 136.056885,288.967529 
	C135.335953,290.053284 135.012985,289.494690 134.755585,288.370148 
z"/>
<path fill="#2B292A" opacity="1.000000" stroke="none" 
	d="
M181.014938,302.327881 
	C181.438065,302.222656 182.063812,302.374390 182.872528,302.802856 
	C182.442856,302.914673 181.830200,302.749756 181.014938,302.327881 
z"/>
<path fill="#E0E0E1" opacity="1.000000" stroke="none" 
	d="
M237.941345,108.527321 
	C237.433044,108.351990 236.953201,107.865189 236.764069,107.154671 
	C237.812912,107.036537 238.076981,107.494003 237.941345,108.527321 
z"/>
<path fill="#D9F1FA" opacity="1.000000" stroke="none" 
	d="
M298.075867,330.211121 
	C298.371216,330.141724 298.629150,330.360046 298.931641,330.836670 
	C298.663635,330.896240 298.351044,330.697510 298.075867,330.211121 
z"/>
<path fill="#D9F1FA" opacity="1.000000" stroke="none" 
	d="
M359.289978,358.098999 
	C358.985229,357.987213 358.960419,357.750671 358.971008,357.158447 
	C359.460693,357.065155 360.274963,357.154327 359.289978,358.098999 
z"/>
<path fill="#2B292A" opacity="1.000000" stroke="none" 
	d="
M142.944061,285.771027 
	C142.730072,285.907318 142.458710,285.733917 142.121918,285.260559 
	C142.347519,285.098419 142.624252,285.265320 142.944061,285.771027 
z"/>
<path fill="#C6C6C6" opacity="1.000000" stroke="none" 
	d="
M149.030334,275.304993 
	C149.451614,275.165802 149.887924,275.301666 150.148300,275.758484 
	C149.663361,275.912964 149.354355,275.746521 149.030334,275.304993 
z"/>
<path fill="#D9F1FA" opacity="1.000000" stroke="none" 
	d="
M357.037476,260.695343 
	C356.801453,260.848358 356.473236,260.723572 356.033417,260.353851 
	C356.262970,260.211823 356.604095,260.314667 357.037476,260.695343 
z"/>
<path fill="#D9F1FA" opacity="1.000000" stroke="none" 
	d="
M298.070129,269.190613 
	C298.385254,269.118317 298.651337,269.337646 298.943054,269.822968 
	C298.652832,269.886719 298.336914,269.684509 298.070129,269.190613 
z"/>
<path fill="#D9F1FA" opacity="1.000000" stroke="none" 
	d="
M357.279724,270.012848 
	C357.210785,269.792633 357.417633,269.491852 357.888123,269.085327 
	C357.953064,269.297180 357.754303,269.614716 357.279724,270.012848 
z"/>
<path fill="#D9F1FA" opacity="1.000000" stroke="none" 
	d="
M354.294708,302.899109 
	C354.002686,302.857483 354.015808,302.384430 354.025696,302.147156 
	C354.242828,301.917236 354.450104,301.924652 354.967651,301.964905 
	C355.047516,302.312042 354.817139,302.626404 354.294708,302.899109 
z"/>
<path fill="#262626" opacity="1.000000" stroke="none" 
	d="
M245.978622,270.697754 
	C245.787766,270.986664 245.583267,270.972076 245.072388,270.911621 
	C244.992340,270.599976 245.218689,270.334167 245.670349,269.929535 
	C245.918793,269.991882 245.941895,270.193054 245.978622,270.697754 
z"/>
<path fill="#D9F1FA" opacity="1.000000" stroke="none" 
	d="
M356.148132,301.949799 
	C356.076782,301.623077 356.306824,301.340149 356.821106,301.050293 
	C356.886719,301.360138 356.668121,301.676880 356.148132,301.949799 
z"/>
<path fill="#D9F1FA" opacity="1.000000" stroke="none" 
	d="
M298.987000,270.327942 
	C299.246216,270.150940 299.583374,270.264618 300.028564,270.636780 
	C299.779358,270.803040 299.422150,270.710785 298.987000,270.327942 
z"/>
<path fill="#D9F1FA" opacity="1.000000" stroke="none" 
	d="
M280.984314,301.298096 
	C281.231720,301.107117 281.534332,301.242493 281.926208,301.658447 
	C281.716125,301.776093 281.390808,301.671265 280.984314,301.298096 
z"/>
<path fill="#E0E0E1" opacity="1.000000" stroke="none" 
	d="
M187.958801,319.293365 
	C188.481430,318.630127 188.958786,318.729584 189.161530,319.697632 
	C188.659576,319.920563 188.335510,319.748627 187.958801,319.293365 
z"/>
<path fill="#D9F1FA" opacity="1.000000" stroke="none" 
	d="
M358.016052,261.712830 
	C357.783051,261.799072 357.477509,261.616180 357.091644,261.166687 
	C357.322052,261.081299 357.632812,261.262482 358.016052,261.712830 
z"/>
<path fill="#E0E0E1" opacity="1.000000" stroke="none" 
	d="
M191.046234,321.004456 
	C191.070740,321.067413 191.211945,321.181183 191.594269,321.169128 
	C191.835419,321.043365 191.485062,321.175079 191.485062,321.175079 
	C191.485062,321.175079 191.162903,321.055267 191.046234,321.004456 
z"/>
<path fill="#2B292A" opacity="1.000000" stroke="none" 
	d="
M158.699615,271.934265 
	C158.795441,272.313782 158.665344,272.712128 158.070892,272.138458 
	C157.982727,271.965698 158.460190,271.924408 158.699615,271.934265 
z"/>
<path fill="#D9F1FA" opacity="1.000000" stroke="none" 
	d="
M357.314728,301.014954 
	C357.154175,300.767487 357.274780,300.444305 357.644775,300.019958 
	C357.794708,300.258942 357.695312,300.599091 357.314728,301.014954 
z"/>
<path fill="#D9F1FA" opacity="1.000000" stroke="none" 
	d="
M356.278809,271.012177 
	C356.197723,270.784668 356.385559,270.482574 356.833801,270.092896 
	C356.912018,270.316071 356.729828,270.626862 356.278809,271.012177 
z"/>
<path fill="#D9F1FA" opacity="1.000000" stroke="none" 
	d="
M279.672546,321.988281 
	C279.847290,322.245483 279.732269,322.578430 279.362152,323.019440 
	C279.198975,322.773010 279.290863,322.418518 279.672546,321.988281 
z"/>
<path fill="#D9F1FA" opacity="1.000000" stroke="none" 
	d="
M359.302612,327.071960 
	C358.999756,326.950226 358.977966,326.719635 358.990997,326.142761 
	C359.463959,326.064758 360.270386,326.156921 359.302612,327.071960 
z"/>
<path fill="#D9F1FA" opacity="1.000000" stroke="none" 
	d="
M357.279938,331.020416 
	C357.193146,330.785278 357.376556,330.476349 357.826782,330.088684 
	C357.912445,330.322205 357.731293,330.634430 357.279938,331.020416 
z"/>
<path fill="#D9F1FA" opacity="1.000000" stroke="none" 
	d="
M279.863281,331.258392 
	C280.083038,331.169281 280.446655,331.337128 280.898102,331.795624 
	C280.659698,331.895966 280.333435,331.705658 279.863281,331.258392 
z"/>
<path fill="#D9F1FA" opacity="1.000000" stroke="none" 
	d="
M298.969635,331.317108 
	C299.210144,331.153198 299.540222,331.270294 299.982574,331.635223 
	C299.749634,331.788086 299.404419,331.693085 298.969635,331.317108 
z"/>
<path fill="#D9F1FA" opacity="1.000000" stroke="none" 
	d="
M356.279114,332.016541 
	C356.195496,331.786163 356.381012,331.480591 356.829773,331.091217 
	C356.911438,331.318726 356.729828,331.630066 356.279114,332.016541 
z"/>
<path fill="#2B292A" opacity="1.000000" stroke="none" 
	d="
M159.737396,270.979431 
	C159.795624,271.159088 159.619904,271.448792 159.207199,271.841553 
	C159.147964,271.659546 159.325699,271.374512 159.737396,270.979431 
z"/>
<path fill="#2B292A" opacity="1.000000" stroke="none" 
	d="
M147.826096,252.364670 
	C148.035782,252.311935 148.386536,252.514236 148.806702,253.026184 
	C148.573135,253.097122 148.270142,252.858414 147.826096,252.364670 
z"/>
<path fill="#D9F1FA" opacity="1.000000" stroke="none" 
	d="
M155.701721,124.533661 
	C156.372818,124.264114 156.689011,124.135796 157.014984,124.102005 
	C165.005920,123.273628 164.991547,123.273735 164.081421,131.082718 
	C163.889557,132.728897 163.823807,134.391357 163.742065,136.048401 
	C163.626694,138.387238 163.985855,140.627121 166.907547,140.675888 
	C169.435623,140.718048 170.117523,138.781403 170.242355,136.582596 
	C170.546417,131.227570 171.736679,126.091194 174.384430,121.017120 
	C179.391586,121.041977 182.611694,118.787148 185.258636,114.987259 
	C189.105850,109.464287 194.608749,105.814583 200.737671,102.465706 
	C221.783035,99.433266 239.701035,113.582909 241.839966,134.511765 
	C241.958374,135.670456 241.902679,136.858154 242.130081,137.991821 
	C242.457031,139.621674 243.531830,140.716019 245.227890,140.718948 
	C247.175827,140.722305 248.339142,139.512299 248.474823,137.612137 
	C248.713379,134.271194 248.523239,130.872650 247.473480,127.729553 
	C246.357941,124.389435 247.448776,123.845039 250.558640,123.795036 
	C267.200531,123.527473 282.007019,135.115280 286.086029,151.817657 
	C289.905487,167.457077 281.613953,184.355621 266.508942,191.616714 
	C257.325104,196.031479 247.906693,196.156174 238.349289,192.953568 
	C237.563721,192.690323 236.837570,192.221390 236.040161,192.027420 
	C234.062668,191.546371 232.340561,191.875366 231.569336,194.043732 
	C230.887390,195.961121 231.824310,197.220963 233.450668,198.126556 
	C236.996323,200.100815 240.925598,201.006195 244.836060,201.638733 
	C247.442230,202.060287 248.071060,203.092392 247.990921,205.509308 
	C247.830948,210.333740 247.803329,215.172333 247.989944,219.994659 
	C248.092911,222.655273 247.141190,223.627518 244.570389,223.347855 
	C243.418045,223.222473 242.241043,223.323914 241.075226,223.322403 
	C231.846008,223.310486 231.806290,223.313339 231.143509,214.068680 
	C230.983292,211.833862 230.456299,210.026337 227.892761,209.897827 
	C225.281784,209.766922 224.580734,211.609436 224.309601,213.782745 
	C223.926285,216.855423 225.798889,221.160172 223.409500,222.715927 
	C221.041290,224.257858 216.968536,222.985825 213.696304,223.383484 
	C209.321564,223.915131 207.520752,222.437973 208.257828,217.950821 
	C208.523376,216.334229 208.307907,214.626099 208.210510,212.965683 
	C208.094727,210.992126 206.952576,209.903473 204.994858,209.890625 
	C203.039185,209.877777 201.838028,210.955139 201.725830,212.917618 
	C201.583450,215.407700 202.198364,218.102219 201.449921,220.365784 
	C199.353836,226.705154 193.955246,222.022354 190.210480,223.179688 
	C188.340439,223.757614 185.300171,224.331482 185.536865,220.309570 
	C185.682999,217.826691 185.587540,215.312866 185.380203,212.831345 
	C185.221863,210.936127 184.024368,209.792114 182.030319,209.877853 
	C180.076233,209.961884 178.999191,211.105957 178.848724,213.039474 
	C178.758469,214.199417 178.787048,215.369431 178.781082,216.535019 
	C178.746078,223.378235 178.747955,223.378250 171.421432,223.171631 
	C169.214127,221.011017 169.365112,218.498657 169.430527,216.071045 
	C169.557785,211.349380 168.984543,206.626221 169.754425,201.516724 
	C172.215469,200.411331 174.474075,199.831680 176.606232,198.947189 
	C178.747910,198.058746 181.280243,196.983795 180.065445,193.955780 
	C178.909348,191.074051 176.545639,191.592926 174.208328,192.591843 
	C169.070251,194.787750 163.661148,195.294525 158.140457,195.039215 
	C152.376846,194.772659 147.149734,192.869003 142.042862,189.624817 
	C138.021194,183.192841 133.410904,177.491135 132.241150,169.935074 
	C129.573257,152.701523 134.306290,138.516769 148.706985,128.041885 
	C150.752686,126.553879 153.109741,125.771111 155.701721,124.533661 
z"/>
<path fill="#B2D7E2" opacity="1.000000" stroke="none" 
	d="
M155.671082,124.268509 
	C153.971497,127.763184 150.056000,128.883133 147.058167,131.009064 
	C131.147705,142.292038 128.582443,169.116226 139.198700,182.914520 
	C140.451187,184.542404 142.200027,186.143524 141.877151,188.983521 
	C129.701447,181.903000 123.946648,170.974075 124.948685,156.866211 
	C125.938995,142.923416 133.508987,133.203735 145.844666,127.084473 
	C148.796158,125.620354 151.936905,124.484138 155.671082,124.268509 
z"/>
<path fill="#B2D7E2" opacity="1.000000" stroke="none" 
	d="
M169.616974,201.110596 
	C171.929169,208.048584 170.624939,215.122055 170.982117,222.590866 
	C163.433472,223.705826 163.432068,223.705826 163.411835,216.191757 
	C163.404694,213.538651 163.718475,210.839539 163.336014,208.242386 
	C162.634933,203.481857 164.396362,201.122192 169.616974,201.110596 
z"/>
<path fill="#68A1C1" opacity="1.000000" stroke="none" 
	d="
M243.562881,230.132050 
	C242.389374,231.478302 240.490128,230.944885 238.710922,230.948105 
	C218.586365,230.984634 198.461700,230.972748 178.337067,230.966995 
	C170.883926,230.964859 170.881851,230.956665 170.960907,238.543762 
	C170.967819,239.207977 171.025681,239.871689 171.125122,240.947357 
	C164.524765,242.121964 161.144745,237.886932 163.419022,231.735550 
	C164.253952,229.477310 166.073532,230.099411 167.611496,230.096405 
	C192.775543,230.047272 217.939667,230.041824 243.562881,230.132050 
z"/>
<path fill="#B2D7E2" opacity="1.000000" stroke="none" 
	d="
M200.651031,102.196037 
	C200.311050,104.551987 198.187759,105.607529 196.455505,106.571869 
	C191.805984,109.160248 188.456177,112.898232 185.245956,116.998146 
	C182.851425,120.056358 180.348618,123.807503 175.017593,120.952271 
	C179.951599,110.104996 188.967499,104.539154 200.651031,102.196037 
z"/>
<path fill="#68A1C1" opacity="1.000000" stroke="none" 
	d="
M247.533722,238.980499 
	C247.161530,236.606705 247.059967,233.914871 246.926361,230.789734 
	C249.240555,232.901276 247.866745,235.853714 247.533722,238.980499 
z"/>
<path fill="#000000" opacity="1.000000" stroke="none" 
	d="
M244.070129,116.892807 
	C244.033722,116.684685 244.232208,116.409492 244.692169,116.144669 
	C244.873459,116.510155 244.657257,116.733727 244.070129,116.892807 
z"/>
<path fill="#68A1C1" opacity="1.000000" stroke="none" 
	d="
M216.231628,241.636612 
	C216.265915,241.447922 216.563904,241.370865 216.954880,241.445541 
	C216.863678,241.647598 216.679504,241.697922 216.231628,241.636612 
z"/>
<path fill="#8F8F8F" opacity="1.000000" stroke="none" 
	d="
M260.673462,246.026505 
	C261.014832,247.150406 260.965973,248.213409 260.962311,249.674011 
	C260.778748,250.485107 260.550018,250.898605 260.162964,251.494202 
	C258.554657,249.697464 258.259796,247.774994 260.673462,246.026505 
z"/>
<path fill="#32241E" opacity="1.000000" stroke="none" 
	d="
M250.380341,269.454346 
	C249.588531,269.678802 249.303909,269.400360 249.424774,268.786987 
	C249.449951,268.659332 249.630371,268.487244 249.759262,268.467743 
	C250.380020,268.373688 250.639297,268.675873 250.380341,269.454346 
z"/>
<path fill="#D14721" opacity="1.000000" stroke="none" 
	d="
M211.335541,312.099609 
	C210.630844,311.461639 210.166840,311.154114 209.426270,310.780579 
	C203.777191,308.881775 199.010254,305.841461 194.196915,302.960602 
	C186.420120,298.306030 178.616074,293.706909 170.497009,289.031677 
	C170.325577,288.712006 170.237335,288.708069 170.217072,288.747314 
	C169.845474,288.732635 169.558838,288.564117 169.238739,288.054199 
	C169.149170,287.812164 169.000122,287.906494 169.074203,287.852722 
	C166.270294,286.871185 163.375717,285.972168 161.280914,283.072510 
	C161.078796,282.383759 161.062653,281.987823 161.012115,281.296448 
	C161.210999,280.209564 161.755539,279.694244 162.828003,279.205841 
	C164.930603,278.779999 166.469437,279.372650 167.945099,280.182434 
	C186.255905,290.230621 204.223495,300.870117 222.300781,311.986633 
	C222.635147,315.622101 220.302628,315.662537 218.117218,315.415985 
	C215.673370,315.140289 213.161621,314.718689 211.335541,312.099609 
z"/>
<path fill="#32241E" opacity="1.000000" stroke="none" 
	d="
M225.170990,302.617126 
	C221.488358,301.472717 220.639435,303.215027 220.892731,306.744568 
	C219.897644,307.785828 218.923096,307.558441 218.046829,307.069824 
	C209.711365,302.421844 201.306335,297.893463 193.235245,292.786530 
	C192.669571,292.428619 192.286667,291.883148 192.023285,290.610779 
	C197.728226,289.388794 200.756683,294.597717 205.519989,296.043365 
	C208.617905,296.983582 211.705383,298.883820 214.572388,294.998779 
	C214.904236,294.904999 215.005524,295.004669 215.056107,295.054565 
	C216.226837,296.157990 217.768448,296.392090 219.352844,297.263306 
	C221.267410,298.248108 223.008148,298.687988 225.111694,299.116394 
	C225.879028,300.258942 225.858826,301.265961 225.170990,302.617126 
z"/>
<path fill="#32241E" opacity="1.000000" stroke="none" 
	d="
M170.259857,289.078369 
	C176.458359,290.477570 181.431076,294.446716 186.881210,297.495667 
	C194.237122,301.610779 201.473953,305.938751 208.955780,310.444977 
	C207.087494,312.385529 205.631638,309.412964 203.357697,309.999084 
	C196.343719,307.278107 189.978256,303.388092 184.674561,299.090210 
	C180.043259,295.337189 173.457260,294.831177 170.259857,289.078369 
z"/>
<path fill="#32241E" opacity="1.000000" stroke="none" 
	d="
M162.798340,279.785767 
	C162.113617,280.197906 161.756332,280.497864 161.188370,280.899445 
	C160.032059,276.891022 161.913300,273.706055 165.668411,274.151611 
	C168.979050,274.544434 172.600357,274.480591 175.012802,278.210693 
	C177.232697,281.643036 182.461853,281.650726 184.743469,285.827698 
	C178.876770,286.355896 175.307404,281.866882 170.619385,279.717255 
	C168.072556,278.549408 165.646942,276.743378 162.798340,279.785767 
z"/>
<path fill="#32241E" opacity="1.000000" stroke="none" 
	d="
M194.984451,314.799866 
	C192.396500,317.177734 190.748428,315.327057 189.170212,313.596466 
	C187.565552,311.836853 187.480331,310.077728 189.794525,308.281738 
	C190.943542,308.385468 192.150711,306.682465 192.956604,308.645020 
	C193.248199,310.909515 194.102264,312.689209 194.984451,314.799866 
z"/>
<path fill="#EAA63E" opacity="1.000000" stroke="none" 
	d="
M195.363586,315.106293 
	C192.993011,313.767670 191.530243,312.169403 192.807053,309.204590 
	C193.324875,308.989960 193.664719,309.060120 194.264862,309.142822 
	C195.210373,309.276245 195.867172,309.497986 196.617432,310.053345 
	C196.710632,310.387878 196.799225,310.420441 196.756699,310.440918 
	C197.441025,310.270508 197.901154,310.652588 198.362244,311.502686 
	C198.427567,312.451447 198.274536,313.065063 197.993881,313.971893 
	C197.788239,314.453308 197.686310,314.637146 197.350342,315.032288 
	C196.649414,315.189514 196.182526,315.135437 195.363586,315.106293 
z"/>
<path fill="#32241E" opacity="1.000000" stroke="none" 
	d="
M161.093109,283.156677 
	C163.674393,284.255920 166.253845,285.732086 168.990784,287.503601 
	C165.311737,288.551147 162.455521,287.451508 161.093109,283.156677 
z"/>
<path fill="#32241E" opacity="1.000000" stroke="none" 
	d="
M184.998993,286.010986 
	C187.765335,286.162506 191.075699,285.098114 192.008850,289.552368 
	C192.085403,289.918304 191.935623,290.084717 191.862396,290.169403 
	C188.638702,290.973175 186.512299,289.478119 184.796906,286.656921 
	C184.768539,286.280701 184.921494,286.100311 184.998993,286.010986 
z"/>
<path fill="#2B292A" opacity="1.000000" stroke="none" 
	d="
M154.594666,279.002228 
	C154.203140,278.568512 154.142395,278.126404 153.982788,277.364441 
	C154.790359,277.099670 156.014343,276.679108 156.404327,277.757568 
	C156.820084,278.907318 155.636810,278.818390 154.594666,279.002228 
z"/>
<path fill="#32241E" opacity="1.000000" stroke="none" 
	d="
M198.225937,312.111877 
	C197.666397,311.541473 197.305725,311.214355 196.829620,310.674316 
	C197.945465,309.993378 199.135559,309.696686 199.765778,311.809814 
	C199.233170,312.524109 198.826874,312.503510 198.225937,312.111877 
z"/>
<path fill="#32241E" opacity="1.000000" stroke="none" 
	d="
M196.625397,310.035156 
	C196.118759,310.148773 195.526901,309.909637 194.730103,309.412903 
	C195.196823,309.331055 195.868500,309.506744 196.625397,310.035156 
z"/>
<path fill="#262626" opacity="1.000000" stroke="none" 
	d="
M239.455414,276.528107 
	C239.426468,276.477783 239.484344,276.578430 239.455414,276.528107 
z"/>
<path fill="#32241E" opacity="1.000000" stroke="none" 
	d="
M169.216644,288.070526 
	C169.464600,287.960266 169.780029,288.108398 170.146118,288.521545 
	C169.892563,288.634003 169.588348,288.481445 169.216644,288.070526 
z"/>
<path fill="#32241E" opacity="1.000000" stroke="none" 
	d="
M200.776215,311.990051 
	C200.951065,312.263794 200.835602,312.498688 200.521881,312.841980 
	C200.171936,312.940247 199.966400,312.903687 199.769012,312.554138 
	C199.777130,312.241089 199.921677,312.087036 199.994934,312.009705 
	C200.068192,311.932373 200.539703,311.977692 200.776215,311.990051 
z"/>
<path fill="#D9F1FA" opacity="1.000000" stroke="none" 
	d="
M351.684753,301.745300 
	C331.320984,302.001038 310.624573,302.015411 289.458801,302.010620 
	C289.585327,301.735718 290.181763,301.255188 290.776917,301.256775 
	C310.968719,301.310852 331.160400,301.410736 351.684753,301.745300 
z"/>
<path fill="#F6CD70" opacity="1.000000" stroke="none" 
	d="
M225.481323,299.232605 
	C223.260239,300.766785 221.241119,300.363831 219.085083,298.461487 
	C218.616440,295.650085 220.902435,295.372772 222.328384,294.593597 
	C232.556366,289.004822 242.527954,282.974640 252.646149,277.198792 
	C255.548203,275.542206 257.344025,273.373352 258.517517,270.167969 
	C262.055359,260.504272 269.465088,255.514160 279.772888,253.875763 
	C287.461670,255.181580 290.374695,259.865509 288.163605,266.724915 
	C284.524353,278.014832 272.297028,284.361206 260.847076,280.694611 
	C258.567993,279.964813 256.994598,280.801971 255.269989,281.762360 
	C253.239197,282.893250 251.246201,284.092010 249.040527,285.539185 
	C246.248917,286.604462 244.453278,287.951324 245.240540,291.422058 
	C243.825684,292.079407 242.428925,292.931824 240.444305,292.449097 
	C236.967834,291.934875 234.843460,294.084747 232.141586,295.481049 
	C231.634827,296.371399 231.017197,296.467010 230.178253,296.785828 
	C229.918579,296.945129 229.990997,296.991791 229.970215,296.954041 
	C229.019943,298.165222 227.810959,298.961731 225.939194,299.222290 
	C225.622360,299.246277 225.528748,299.230408 225.481323,299.232605 
z"/>
<path fill="#EAA63E" opacity="1.000000" stroke="none" 
	d="
M279.809753,253.602661 
	C273.966431,256.800476 267.083069,258.578918 262.748108,264.604675 
	C261.570099,266.242157 260.156647,267.766907 259.966431,269.782104 
	C259.494995,274.776672 255.953033,276.872162 252.103836,279.010620 
	C241.115494,285.115234 230.228119,291.401550 219.076096,297.896484 
	C217.407211,297.684082 215.837555,297.385437 215.117035,295.432983 
	C227.380676,288.110901 239.650818,281.110535 251.933105,274.131592 
	C253.632584,273.165924 254.851471,271.934082 254.867233,269.846710 
	C254.903015,265.108337 257.464233,261.741455 261.042694,258.548645 
	C266.938995,255.239990 272.651459,252.230881 279.809753,253.602661 
z"/>
<path fill="#32241E" opacity="1.000000" stroke="none" 
	d="
M211.060043,312.133850 
	C212.839478,312.589661 214.593613,313.390686 216.326401,314.235504 
	C218.630341,315.358856 220.671738,315.456696 222.193573,312.533905 
	C222.002304,311.289948 221.932129,310.408905 222.602783,309.300476 
	C224.571335,309.116180 225.256546,309.998901 224.622498,311.613647 
	C223.991409,313.220886 223.765549,314.751984 224.833160,316.644409 
	C220.594971,316.062164 216.211426,315.367096 211.411163,316.989716 
	C207.087692,315.475250 212.440140,314.009064 211.060043,312.133850 
z"/>
<path fill="#32241E" opacity="1.000000" stroke="none" 
	d="
M199.711258,313.848694 
	C201.369034,314.203949 202.541199,314.927643 201.518784,316.235809 
	C200.253448,317.854767 198.862350,316.221649 197.339508,315.485809 
	C197.116302,315.243591 197.074280,315.015991 197.002533,314.925171 
	C197.672791,314.274963 198.368881,313.617004 199.711258,313.848694 
z"/>
<path fill="#F6CD70" opacity="1.000000" stroke="none" 
	d="
M200.136017,313.763611 
	C199.207596,314.301636 198.395020,314.589539 197.256622,314.855896 
	C197.126144,313.986755 197.321487,313.139191 197.771957,312.080109 
	C198.413330,311.964905 198.799576,312.061218 199.481476,312.199310 
	C199.777130,312.241089 199.977417,312.690643 200.177429,312.833740 
	C200.335587,313.155731 200.293716,313.334625 200.136017,313.763611 
z"/>
<path fill="#32241E" opacity="1.000000" stroke="none" 
	d="
M225.970016,299.466919 
	C226.851471,298.506683 228.080582,297.767090 229.629547,296.971924 
	C229.799622,299.230225 228.660065,300.247070 225.970016,299.466919 
z"/>
<path fill="#32241E" opacity="1.000000" stroke="none" 
	d="
M230.243225,296.933533 
	C230.386230,296.576355 230.853882,296.207581 231.624069,295.785889 
	C231.473694,296.129242 231.020798,296.525574 230.243225,296.933533 
z"/>
<path fill="#DF6036" opacity="1.000000" stroke="none" 
	d="
M222.639206,308.962036 
	C222.786865,309.924011 222.734955,310.791138 222.482452,311.918030 
	C213.926773,308.911438 206.692612,303.595978 198.867065,299.360992 
	C186.993088,292.935089 176.068771,284.770905 162.895386,279.921844 
	C163.510498,275.741333 165.545380,275.180542 169.170898,277.510620 
	C173.992371,280.609283 179.107834,283.250519 184.432770,286.184509 
	C186.889465,287.544312 189.010391,288.807922 191.460236,290.162842 
	C201.250793,295.831482 210.712402,301.408875 220.510742,307.063751 
	C220.847458,307.141235 220.900635,307.120880 220.894257,307.093384 
	C221.176743,307.250061 221.436523,307.468842 221.810669,307.934082 
	C222.026550,308.446594 222.188354,308.687042 222.639206,308.962036 
z"/>
<path fill="#32241E" opacity="1.000000" stroke="none" 
	d="
M221.861694,307.893066 
	C221.653732,307.958740 221.353256,307.771515 220.970322,307.325073 
	C221.181641,307.257294 221.475418,307.448730 221.861694,307.893066 
z"/>
<path fill="#32241E" opacity="1.000000" stroke="none" 
	d="
M217.972046,320.750000 
	C217.131088,320.920624 216.267548,320.776642 215.163895,320.411072 
	C216.124405,317.907654 217.145065,317.841003 217.972046,320.750000 
z"/>
<path fill="#242424" opacity="1.000000" stroke="none" 
	d="
M217.363586,301.472504 
	C216.045776,301.896667 214.742340,302.454193 214.481720,300.780060 
	C214.351334,299.942566 215.165482,299.339264 215.994934,299.236115 
	C217.492905,299.049744 218.053665,299.775177 217.363586,301.472504 
z"/>
</svg>